<?xml version="1.0" encoding="utf-8" standalone="no"?>
<!DOCTYPE svg PUBLIC "-//W3C//DTD SVG 1.1//EN"
  "http://www.w3.org/Graphics/SVG/1.1/DTD/svg11.dtd">
<svg xmlns:xlink="http://www.w3.org/1999/xlink" width="543.222031pt" height="312.300781pt" viewBox="0 0 543.222031 312.300781" xmlns="http://www.w3.org/2000/svg" version="1.1">
 <metadata>
  <rdf:RDF xmlns:dc="http://purl.org/dc/elements/1.1/" xmlns:cc="http://creativecommons.org/ns#" xmlns:rdf="http://www.w3.org/1999/02/22-rdf-syntax-ns#">
   <cc:Work>
    <dc:type rdf:resource="http://purl.org/dc/dcmitype/StillImage"/>
    <dc:date>2026-03-06T07:01:26.077878</dc:date>
    <dc:format>image/svg+xml</dc:format>
    <dc:creator>
     <cc:Agent>
      <dc:title>Matplotlib v3.10.8, https://matplotlib.org/</dc:title>
     </cc:Agent>
    </dc:creator>
   </cc:Work>
  </rdf:RDF>
 </metadata>
 <defs>
  <style type="text/css">*{stroke-linejoin: round; stroke-linecap: butt}</style>
 </defs>
 <g id="figure_1">
  <g id="patch_1">
   <path d="M 0 312.300781 
L 543.222031 312.300781 
L 543.222031 0 
L 0 0 
z
" style="fill: #ffffff"/>
  </g>
  <g id="axes_1">
   <g id="patch_2">
    <path d="M 38.272031 275.129375 
L 541.782031 275.129375 
L 541.782031 20.929375 
L 38.272031 20.929375 
z
" style="fill: #ffffff"/>
   </g>
   <g id="matplotlib.axis_1">
    <g id="xtick_1">
     <g id="line2d_1">
      <defs>
       <path id="mc20f088701" d="M 0 0 
L 0 3.5 
" style="stroke: #000000; stroke-width: 0.8"/>
      </defs>
      <g>
       <use xlink:href="#mc20f088701" x="54.973223" y="275.129375" style="stroke: #000000; stroke-width: 0.8"/>
      </g>
     </g>
     <g id="text_1">
      <!-- 0 -->
      <g transform="translate(51.973223 290.461875) scale(0.12 -0.12)">
       <defs>
        <path id="TimesNewRomanPSMT-30" d="M 231 2094 
Q 231 2819 450 3342 
Q 669 3866 1031 4122 
Q 1313 4325 1613 4325 
Q 2100 4325 2488 3828 
Q 2972 3213 2972 2159 
Q 2972 1422 2759 906 
Q 2547 391 2217 158 
Q 1888 -75 1581 -75 
Q 975 -75 572 641 
Q 231 1244 231 2094 
z
M 844 2016 
Q 844 1141 1059 588 
Q 1238 122 1591 122 
Q 1759 122 1940 273 
Q 2122 425 2216 781 
Q 2359 1319 2359 2297 
Q 2359 3022 2209 3506 
Q 2097 3866 1919 4016 
Q 1791 4119 1609 4119 
Q 1397 4119 1231 3928 
Q 1006 3669 925 3112 
Q 844 2556 844 2016 
z
" transform="scale(0.015625)"/>
       </defs>
       <use xlink:href="#TimesNewRomanPSMT-30"/>
      </g>
     </g>
    </g>
    <g id="xtick_2">
     <g id="line2d_2">
      <g>
       <use xlink:href="#mc20f088701" x="116.829488" y="275.129375" style="stroke: #000000; stroke-width: 0.8"/>
      </g>
     </g>
     <g id="text_2">
      <!-- 20 -->
      <g transform="translate(110.829488 290.461875) scale(0.12 -0.12)">
       <defs>
        <path id="TimesNewRomanPSMT-32" d="M 2934 816 
L 2638 0 
L 138 0 
L 138 116 
Q 1241 1122 1691 1759 
Q 2141 2397 2141 2925 
Q 2141 3328 1894 3587 
Q 1647 3847 1303 3847 
Q 991 3847 742 3664 
Q 494 3481 375 3128 
L 259 3128 
Q 338 3706 661 4015 
Q 984 4325 1469 4325 
Q 1984 4325 2329 3994 
Q 2675 3663 2675 3213 
Q 2675 2891 2525 2569 
Q 2294 2063 1775 1497 
Q 997 647 803 472 
L 1909 472 
Q 2247 472 2383 497 
Q 2519 522 2628 598 
Q 2738 675 2819 816 
L 2934 816 
z
" transform="scale(0.015625)"/>
       </defs>
       <use xlink:href="#TimesNewRomanPSMT-32"/>
       <use xlink:href="#TimesNewRomanPSMT-30" transform="translate(50 0)"/>
      </g>
     </g>
    </g>
    <g id="xtick_3">
     <g id="line2d_3">
      <g>
       <use xlink:href="#mc20f088701" x="178.685754" y="275.129375" style="stroke: #000000; stroke-width: 0.8"/>
      </g>
     </g>
     <g id="text_3">
      <!-- 40 -->
      <g transform="translate(172.685754 290.461875) scale(0.12 -0.12)">
       <defs>
        <path id="TimesNewRomanPSMT-34" d="M 2978 1563 
L 2978 1119 
L 2409 1119 
L 2409 0 
L 1894 0 
L 1894 1119 
L 100 1119 
L 100 1519 
L 2066 4325 
L 2409 4325 
L 2409 1563 
L 2978 1563 
z
M 1894 1563 
L 1894 3666 
L 406 1563 
L 1894 1563 
z
" transform="scale(0.015625)"/>
       </defs>
       <use xlink:href="#TimesNewRomanPSMT-34"/>
       <use xlink:href="#TimesNewRomanPSMT-30" transform="translate(50 0)"/>
      </g>
     </g>
    </g>
    <g id="xtick_4">
     <g id="line2d_4">
      <g>
       <use xlink:href="#mc20f088701" x="240.542019" y="275.129375" style="stroke: #000000; stroke-width: 0.8"/>
      </g>
     </g>
     <g id="text_4">
      <!-- 60 -->
      <g transform="translate(234.542019 290.461875) scale(0.12 -0.12)">
       <defs>
        <path id="TimesNewRomanPSMT-36" d="M 2869 4325 
L 2869 4209 
Q 2456 4169 2195 4045 
Q 1934 3922 1679 3669 
Q 1425 3416 1258 3105 
Q 1091 2794 978 2366 
Q 1428 2675 1881 2675 
Q 2316 2675 2634 2325 
Q 2953 1975 2953 1425 
Q 2953 894 2631 456 
Q 2244 -75 1606 -75 
Q 1172 -75 869 213 
Q 275 772 275 1663 
Q 275 2231 503 2743 
Q 731 3256 1154 3653 
Q 1578 4050 1965 4187 
Q 2353 4325 2688 4325 
L 2869 4325 
z
M 925 2138 
Q 869 1716 869 1456 
Q 869 1156 980 804 
Q 1091 453 1309 247 
Q 1469 100 1697 100 
Q 1969 100 2183 356 
Q 2397 613 2397 1088 
Q 2397 1622 2184 2012 
Q 1972 2403 1581 2403 
Q 1463 2403 1327 2353 
Q 1191 2303 925 2138 
z
" transform="scale(0.015625)"/>
       </defs>
       <use xlink:href="#TimesNewRomanPSMT-36"/>
       <use xlink:href="#TimesNewRomanPSMT-30" transform="translate(50 0)"/>
      </g>
     </g>
    </g>
    <g id="xtick_5">
     <g id="line2d_5">
      <g>
       <use xlink:href="#mc20f088701" x="302.398284" y="275.129375" style="stroke: #000000; stroke-width: 0.8"/>
      </g>
     </g>
     <g id="text_5">
      <!-- 80 -->
      <g transform="translate(296.398284 290.461875) scale(0.12 -0.12)">
       <defs>
        <path id="TimesNewRomanPSMT-38" d="M 1228 2134 
Q 725 2547 579 2797 
Q 434 3047 434 3316 
Q 434 3728 753 4026 
Q 1072 4325 1600 4325 
Q 2113 4325 2425 4047 
Q 2738 3769 2738 3413 
Q 2738 3175 2569 2928 
Q 2400 2681 1866 2347 
Q 2416 1922 2594 1678 
Q 2831 1359 2831 1006 
Q 2831 559 2490 242 
Q 2150 -75 1597 -75 
Q 994 -75 656 303 
Q 388 606 388 966 
Q 388 1247 577 1523 
Q 766 1800 1228 2134 
z
M 1719 2469 
Q 2094 2806 2194 3001 
Q 2294 3197 2294 3444 
Q 2294 3772 2109 3958 
Q 1925 4144 1606 4144 
Q 1288 4144 1088 3959 
Q 888 3775 888 3528 
Q 888 3366 970 3203 
Q 1053 3041 1206 2894 
L 1719 2469 
z
M 1375 2016 
Q 1116 1797 991 1539 
Q 866 1281 866 981 
Q 866 578 1086 336 
Q 1306 94 1647 94 
Q 1984 94 2187 284 
Q 2391 475 2391 747 
Q 2391 972 2272 1150 
Q 2050 1481 1375 2016 
z
" transform="scale(0.015625)"/>
       </defs>
       <use xlink:href="#TimesNewRomanPSMT-38"/>
       <use xlink:href="#TimesNewRomanPSMT-30" transform="translate(50 0)"/>
      </g>
     </g>
    </g>
    <g id="xtick_6">
     <g id="line2d_6">
      <g>
       <use xlink:href="#mc20f088701" x="364.25455" y="275.129375" style="stroke: #000000; stroke-width: 0.8"/>
      </g>
     </g>
     <g id="text_6">
      <!-- 100 -->
      <g transform="translate(355.25455 290.461875) scale(0.12 -0.12)">
       <defs>
        <path id="TimesNewRomanPSMT-31" d="M 750 3822 
L 1781 4325 
L 1884 4325 
L 1884 747 
Q 1884 391 1914 303 
Q 1944 216 2037 169 
Q 2131 122 2419 116 
L 2419 0 
L 825 0 
L 825 116 
Q 1125 122 1212 167 
Q 1300 213 1334 289 
Q 1369 366 1369 747 
L 1369 3034 
Q 1369 3497 1338 3628 
Q 1316 3728 1258 3775 
Q 1200 3822 1119 3822 
Q 1003 3822 797 3725 
L 750 3822 
z
" transform="scale(0.015625)"/>
       </defs>
       <use xlink:href="#TimesNewRomanPSMT-31"/>
       <use xlink:href="#TimesNewRomanPSMT-30" transform="translate(50 0)"/>
       <use xlink:href="#TimesNewRomanPSMT-30" transform="translate(100 0)"/>
      </g>
     </g>
    </g>
    <g id="xtick_7">
     <g id="line2d_7">
      <g>
       <use xlink:href="#mc20f088701" x="426.110815" y="275.129375" style="stroke: #000000; stroke-width: 0.8"/>
      </g>
     </g>
     <g id="text_7">
      <!-- 120 -->
      <g transform="translate(417.110815 290.461875) scale(0.12 -0.12)">
       <use xlink:href="#TimesNewRomanPSMT-31"/>
       <use xlink:href="#TimesNewRomanPSMT-32" transform="translate(50 0)"/>
       <use xlink:href="#TimesNewRomanPSMT-30" transform="translate(100 0)"/>
      </g>
     </g>
    </g>
    <g id="xtick_8">
     <g id="line2d_8">
      <g>
       <use xlink:href="#mc20f088701" x="487.96708" y="275.129375" style="stroke: #000000; stroke-width: 0.8"/>
      </g>
     </g>
     <g id="text_8">
      <!-- 140 -->
      <g transform="translate(478.96708 290.461875) scale(0.12 -0.12)">
       <use xlink:href="#TimesNewRomanPSMT-31"/>
       <use xlink:href="#TimesNewRomanPSMT-34" transform="translate(50 0)"/>
       <use xlink:href="#TimesNewRomanPSMT-30" transform="translate(100 0)"/>
      </g>
     </g>
    </g>
    <g id="text_9">
     <!-- Frequency [kHz] -->
     <g transform="translate(245.80875 308.055625) scale(0.13 -0.13)">
      <defs>
       <path id="TimesNewRomanPSMT-46" d="M 1309 4006 
L 1309 2341 
L 2081 2341 
Q 2347 2341 2470 2458 
Q 2594 2575 2634 2922 
L 2750 2922 
L 2750 1488 
L 2634 1488 
Q 2631 1734 2570 1850 
Q 2509 1966 2401 2023 
Q 2294 2081 2081 2081 
L 1309 2081 
L 1309 750 
Q 1309 428 1350 325 
Q 1381 247 1481 191 
Q 1619 116 1769 116 
L 1922 116 
L 1922 0 
L 103 0 
L 103 116 
L 253 116 
Q 516 116 634 269 
Q 709 369 709 750 
L 709 3488 
Q 709 3809 669 3913 
Q 638 3991 541 4047 
Q 406 4122 253 4122 
L 103 4122 
L 103 4238 
L 3256 4238 
L 3297 3306 
L 3188 3306 
Q 3106 3603 2998 3742 
Q 2891 3881 2733 3943 
Q 2575 4006 2244 4006 
L 1309 4006 
z
" transform="scale(0.015625)"/>
       <path id="TimesNewRomanPSMT-72" d="M 1038 2947 
L 1038 2303 
Q 1397 2947 1775 2947 
Q 1947 2947 2059 2842 
Q 2172 2738 2172 2600 
Q 2172 2478 2090 2393 
Q 2009 2309 1897 2309 
Q 1788 2309 1652 2417 
Q 1516 2525 1450 2525 
Q 1394 2525 1328 2463 
Q 1188 2334 1038 2041 
L 1038 669 
Q 1038 431 1097 309 
Q 1138 225 1241 169 
Q 1344 113 1538 113 
L 1538 0 
L 72 0 
L 72 113 
Q 291 113 397 181 
Q 475 231 506 341 
Q 522 394 522 644 
L 522 1753 
Q 522 2253 501 2348 
Q 481 2444 426 2487 
Q 372 2531 291 2531 
Q 194 2531 72 2484 
L 41 2597 
L 906 2947 
L 1038 2947 
z
" transform="scale(0.015625)"/>
       <path id="TimesNewRomanPSMT-65" d="M 681 1784 
Q 678 1147 991 784 
Q 1303 422 1725 422 
Q 2006 422 2214 576 
Q 2422 731 2563 1106 
L 2659 1044 
Q 2594 616 2278 264 
Q 1963 -88 1488 -88 
Q 972 -88 605 314 
Q 238 716 238 1394 
Q 238 2128 614 2539 
Q 991 2950 1559 2950 
Q 2041 2950 2350 2633 
Q 2659 2316 2659 1784 
L 681 1784 
z
M 681 1966 
L 2006 1966 
Q 1991 2241 1941 2353 
Q 1863 2528 1708 2628 
Q 1553 2728 1384 2728 
Q 1125 2728 920 2526 
Q 716 2325 681 1966 
z
" transform="scale(0.015625)"/>
       <path id="TimesNewRomanPSMT-71" d="M 2734 2947 
L 2734 -734 
Q 2734 -1009 2771 -1087 
Q 2809 -1166 2889 -1209 
Q 2969 -1253 3200 -1253 
L 3200 -1369 
L 1756 -1369 
L 1756 -1253 
L 1816 -1253 
Q 1991 -1253 2081 -1203 
Q 2144 -1169 2181 -1080 
Q 2219 -991 2219 -734 
L 2219 497 
Q 1934 159 1721 35 
Q 1509 -88 1281 -88 
Q 866 -88 539 290 
Q 213 669 213 1303 
Q 213 2031 644 2489 
Q 1075 2947 1684 2947 
Q 1863 2947 2013 2897 
Q 2163 2847 2281 2747 
Q 2463 2834 2628 2947 
L 2734 2947 
z
M 2219 694 
L 2219 2038 
Q 2219 2272 2158 2406 
Q 2097 2541 1940 2634 
Q 1784 2728 1588 2728 
Q 1238 2728 988 2431 
Q 738 2134 738 1531 
Q 738 953 992 653 
Q 1247 353 1606 353 
Q 1791 353 1934 433 
Q 2078 513 2219 694 
z
" transform="scale(0.015625)"/>
       <path id="TimesNewRomanPSMT-75" d="M 2709 2863 
L 2709 1128 
Q 2709 631 2732 520 
Q 2756 409 2807 365 
Q 2859 322 2928 322 
Q 3025 322 3147 375 
L 3191 266 
L 2334 -88 
L 2194 -88 
L 2194 519 
Q 1825 119 1631 15 
Q 1438 -88 1222 -88 
Q 981 -88 804 51 
Q 628 191 559 409 
Q 491 628 491 1028 
L 491 2306 
Q 491 2509 447 2587 
Q 403 2666 317 2708 
Q 231 2750 6 2747 
L 6 2863 
L 1009 2863 
L 1009 947 
Q 1009 547 1148 422 
Q 1288 297 1484 297 
Q 1619 297 1789 381 
Q 1959 466 2194 703 
L 2194 2325 
Q 2194 2569 2105 2655 
Q 2016 2741 1734 2747 
L 1734 2863 
L 2709 2863 
z
" transform="scale(0.015625)"/>
       <path id="TimesNewRomanPSMT-6e" d="M 1034 2341 
Q 1538 2947 1994 2947 
Q 2228 2947 2397 2830 
Q 2566 2713 2666 2444 
Q 2734 2256 2734 1869 
L 2734 647 
Q 2734 375 2778 278 
Q 2813 200 2889 156 
Q 2966 113 3172 113 
L 3172 0 
L 1756 0 
L 1756 113 
L 1816 113 
Q 2016 113 2095 173 
Q 2175 234 2206 353 
Q 2219 400 2219 647 
L 2219 1819 
Q 2219 2209 2117 2386 
Q 2016 2563 1775 2563 
Q 1403 2563 1034 2156 
L 1034 647 
Q 1034 356 1069 288 
Q 1113 197 1189 155 
Q 1266 113 1500 113 
L 1500 0 
L 84 0 
L 84 113 
L 147 113 
Q 366 113 442 223 
Q 519 334 519 647 
L 519 1709 
Q 519 2225 495 2337 
Q 472 2450 423 2490 
Q 375 2531 294 2531 
Q 206 2531 84 2484 
L 38 2597 
L 900 2947 
L 1034 2947 
L 1034 2341 
z
" transform="scale(0.015625)"/>
       <path id="TimesNewRomanPSMT-63" d="M 2631 1088 
Q 2516 522 2178 217 
Q 1841 -88 1431 -88 
Q 944 -88 581 321 
Q 219 731 219 1428 
Q 219 2103 620 2525 
Q 1022 2947 1584 2947 
Q 2006 2947 2278 2723 
Q 2550 2500 2550 2259 
Q 2550 2141 2473 2067 
Q 2397 1994 2259 1994 
Q 2075 1994 1981 2113 
Q 1928 2178 1911 2362 
Q 1894 2547 1784 2644 
Q 1675 2738 1481 2738 
Q 1169 2738 978 2506 
Q 725 2200 725 1697 
Q 725 1184 976 792 
Q 1228 400 1656 400 
Q 1963 400 2206 609 
Q 2378 753 2541 1131 
L 2631 1088 
z
" transform="scale(0.015625)"/>
       <path id="TimesNewRomanPSMT-79" d="M 38 2863 
L 1372 2863 
L 1372 2747 
L 1306 2747 
Q 1166 2747 1095 2686 
Q 1025 2625 1025 2534 
Q 1025 2413 1128 2197 
L 1825 753 
L 2466 2334 
Q 2519 2463 2519 2588 
Q 2519 2644 2497 2672 
Q 2472 2706 2419 2726 
Q 2366 2747 2231 2747 
L 2231 2863 
L 3163 2863 
L 3163 2747 
Q 3047 2734 2984 2696 
Q 2922 2659 2847 2556 
Q 2819 2513 2741 2316 
L 1575 -541 
Q 1406 -956 1132 -1168 
Q 859 -1381 606 -1381 
Q 422 -1381 303 -1275 
Q 184 -1169 184 -1031 
Q 184 -900 270 -820 
Q 356 -741 506 -741 
Q 609 -741 788 -809 
Q 913 -856 944 -856 
Q 1038 -856 1148 -759 
Q 1259 -663 1372 -384 
L 1575 113 
L 547 2272 
Q 500 2369 397 2513 
Q 319 2622 269 2659 
Q 197 2709 38 2747 
L 38 2863 
z
" transform="scale(0.015625)"/>
       <path id="TimesNewRomanPSMT-20" transform="scale(0.015625)"/>
       <path id="TimesNewRomanPSMT-5b" d="M 1900 -1269 
L 525 -1269 
L 525 4334 
L 1900 4334 
L 1900 4088 
L 994 4088 
L 994 -1025 
L 1900 -1025 
L 1900 -1269 
z
" transform="scale(0.015625)"/>
       <path id="TimesNewRomanPSMT-6b" d="M 1047 4444 
L 1047 1597 
L 1775 2259 
Q 2006 2472 2044 2528 
Q 2069 2566 2069 2603 
Q 2069 2666 2017 2711 
Q 1966 2756 1847 2763 
L 1847 2863 
L 3091 2863 
L 3091 2763 
Q 2834 2756 2664 2684 
Q 2494 2613 2291 2428 
L 1556 1750 
L 2291 822 
Q 2597 438 2703 334 
Q 2853 188 2966 144 
Q 3044 113 3238 113 
L 3238 0 
L 1847 0 
L 1847 113 
Q 1966 116 2008 148 
Q 2050 181 2050 241 
Q 2050 313 1925 472 
L 1047 1594 
L 1047 644 
Q 1047 366 1086 278 
Q 1125 191 1197 153 
Q 1269 116 1509 113 
L 1509 0 
L 53 0 
L 53 113 
Q 272 113 381 166 
Q 447 200 481 272 
Q 528 375 528 628 
L 528 3234 
Q 528 3731 506 3842 
Q 484 3953 434 3995 
Q 384 4038 303 4038 
Q 238 4038 106 3984 
L 53 4094 
L 903 4444 
L 1047 4444 
z
" transform="scale(0.015625)"/>
       <path id="TimesNewRomanPSMT-48" d="M 1316 2272 
L 3284 2272 
L 3284 3484 
Q 3284 3809 3244 3913 
Q 3213 3991 3113 4047 
Q 2978 4122 2828 4122 
L 2678 4122 
L 2678 4238 
L 4491 4238 
L 4491 4122 
L 4341 4122 
Q 4191 4122 4056 4050 
Q 3956 4000 3920 3898 
Q 3884 3797 3884 3484 
L 3884 750 
Q 3884 428 3925 325 
Q 3956 247 4053 191 
Q 4191 116 4341 116 
L 4491 116 
L 4491 0 
L 2678 0 
L 2678 116 
L 2828 116 
Q 3088 116 3206 269 
Q 3284 369 3284 750 
L 3284 2041 
L 1316 2041 
L 1316 750 
Q 1316 428 1356 325 
Q 1388 247 1488 191 
Q 1622 116 1772 116 
L 1925 116 
L 1925 0 
L 109 0 
L 109 116 
L 259 116 
Q 522 116 641 269 
Q 716 369 716 750 
L 716 3484 
Q 716 3809 675 3913 
Q 644 3991 547 4047 
Q 409 4122 259 4122 
L 109 4122 
L 109 4238 
L 1925 4238 
L 1925 4122 
L 1772 4122 
Q 1622 4122 1488 4050 
Q 1391 4000 1353 3898 
Q 1316 3797 1316 3484 
L 1316 2272 
z
" transform="scale(0.015625)"/>
       <path id="TimesNewRomanPSMT-7a" d="M 2688 878 
L 2653 0 
L 128 0 
L 128 113 
L 2028 2644 
L 1091 2644 
Q 788 2644 694 2605 
Q 600 2566 541 2456 
Q 456 2300 444 2069 
L 319 2069 
L 338 2863 
L 2738 2863 
L 2738 2747 
L 819 209 
L 1863 209 
Q 2191 209 2308 264 
Q 2425 319 2497 456 
Q 2547 556 2581 878 
L 2688 878 
z
" transform="scale(0.015625)"/>
       <path id="TimesNewRomanPSMT-5d" d="M 234 4334 
L 1609 4334 
L 1609 -1272 
L 234 -1272 
L 234 -1025 
L 1141 -1025 
L 1141 4088 
L 234 4088 
L 234 4334 
z
" transform="scale(0.015625)"/>
      </defs>
      <use xlink:href="#TimesNewRomanPSMT-46"/>
      <use xlink:href="#TimesNewRomanPSMT-72" transform="translate(55.615234 0)"/>
      <use xlink:href="#TimesNewRomanPSMT-65" transform="translate(88.916016 0)"/>
      <use xlink:href="#TimesNewRomanPSMT-71" transform="translate(133.300781 0)"/>
      <use xlink:href="#TimesNewRomanPSMT-75" transform="translate(183.300781 0)"/>
      <use xlink:href="#TimesNewRomanPSMT-65" transform="translate(233.300781 0)"/>
      <use xlink:href="#TimesNewRomanPSMT-6e" transform="translate(277.685547 0)"/>
      <use xlink:href="#TimesNewRomanPSMT-63" transform="translate(327.685547 0)"/>
      <use xlink:href="#TimesNewRomanPSMT-79" transform="translate(372.070312 0)"/>
      <use xlink:href="#TimesNewRomanPSMT-20" transform="translate(422.070312 0)"/>
      <use xlink:href="#TimesNewRomanPSMT-5b" transform="translate(447.070312 0)"/>
      <use xlink:href="#TimesNewRomanPSMT-6b" transform="translate(480.371094 0)"/>
      <use xlink:href="#TimesNewRomanPSMT-48" transform="translate(530.371094 0)"/>
      <use xlink:href="#TimesNewRomanPSMT-7a" transform="translate(602.587891 0)"/>
      <use xlink:href="#TimesNewRomanPSMT-5d" transform="translate(646.972656 0)"/>
     </g>
    </g>
   </g>
   <g id="matplotlib.axis_2">
    <g id="ytick_1">
     <g id="line2d_9">
      <defs>
       <path id="m791d3915d0" d="M 0 0 
L -3.5 0 
" style="stroke: #000000; stroke-width: 0.8"/>
      </defs>
      <g>
       <use xlink:href="#m791d3915d0" x="38.272031" y="246.382936" style="stroke: #000000; stroke-width: 0.8"/>
      </g>
     </g>
     <g id="text_10">
      <!-- 4 -->
      <g transform="translate(25.272031 250.549186) scale(0.12 -0.12)">
       <use xlink:href="#TimesNewRomanPSMT-34"/>
      </g>
     </g>
    </g>
    <g id="ytick_2">
     <g id="line2d_10">
      <g>
       <use xlink:href="#m791d3915d0" x="38.272031" y="215.825934" style="stroke: #000000; stroke-width: 0.8"/>
      </g>
     </g>
     <g id="text_11">
      <!-- 6 -->
      <g transform="translate(25.272031 219.992184) scale(0.12 -0.12)">
       <use xlink:href="#TimesNewRomanPSMT-36"/>
      </g>
     </g>
    </g>
    <g id="ytick_3">
     <g id="line2d_11">
      <g>
       <use xlink:href="#m791d3915d0" x="38.272031" y="185.268932" style="stroke: #000000; stroke-width: 0.8"/>
      </g>
     </g>
     <g id="text_12">
      <!-- 8 -->
      <g transform="translate(25.272031 189.435182) scale(0.12 -0.12)">
       <use xlink:href="#TimesNewRomanPSMT-38"/>
      </g>
     </g>
    </g>
    <g id="ytick_4">
     <g id="line2d_12">
      <g>
       <use xlink:href="#m791d3915d0" x="38.272031" y="154.71193" style="stroke: #000000; stroke-width: 0.8"/>
      </g>
     </g>
     <g id="text_13">
      <!-- 10 -->
      <g transform="translate(19.272031 158.87818) scale(0.12 -0.12)">
       <use xlink:href="#TimesNewRomanPSMT-31"/>
       <use xlink:href="#TimesNewRomanPSMT-30" transform="translate(50 0)"/>
      </g>
     </g>
    </g>
    <g id="ytick_5">
     <g id="line2d_13">
      <g>
       <use xlink:href="#m791d3915d0" x="38.272031" y="124.154927" style="stroke: #000000; stroke-width: 0.8"/>
      </g>
     </g>
     <g id="text_14">
      <!-- 12 -->
      <g transform="translate(19.272031 128.321177) scale(0.12 -0.12)">
       <use xlink:href="#TimesNewRomanPSMT-31"/>
       <use xlink:href="#TimesNewRomanPSMT-32" transform="translate(50 0)"/>
      </g>
     </g>
    </g>
    <g id="ytick_6">
     <g id="line2d_14">
      <g>
       <use xlink:href="#m791d3915d0" x="38.272031" y="93.597925" style="stroke: #000000; stroke-width: 0.8"/>
      </g>
     </g>
     <g id="text_15">
      <!-- 14 -->
      <g transform="translate(19.272031 97.764175) scale(0.12 -0.12)">
       <use xlink:href="#TimesNewRomanPSMT-31"/>
       <use xlink:href="#TimesNewRomanPSMT-34" transform="translate(50 0)"/>
      </g>
     </g>
    </g>
    <g id="ytick_7">
     <g id="line2d_15">
      <g>
       <use xlink:href="#m791d3915d0" x="38.272031" y="63.040923" style="stroke: #000000; stroke-width: 0.8"/>
      </g>
     </g>
     <g id="text_16">
      <!-- 16 -->
      <g transform="translate(19.272031 67.207173) scale(0.12 -0.12)">
       <use xlink:href="#TimesNewRomanPSMT-31"/>
       <use xlink:href="#TimesNewRomanPSMT-36" transform="translate(50 0)"/>
      </g>
     </g>
    </g>
    <g id="ytick_8">
     <g id="line2d_16">
      <g>
       <use xlink:href="#m791d3915d0" x="38.272031" y="32.48392" style="stroke: #000000; stroke-width: 0.8"/>
      </g>
     </g>
     <g id="text_17">
      <!-- 18 -->
      <g transform="translate(19.272031 36.65017) scale(0.12 -0.12)">
       <use xlink:href="#TimesNewRomanPSMT-31"/>
       <use xlink:href="#TimesNewRomanPSMT-38" transform="translate(50 0)"/>
      </g>
     </g>
    </g>
    <g id="text_18">
     <!-- Allowable density -->
     <g transform="translate(10.466875 195.507812) rotate(-90) scale(0.13 -0.13)">
      <defs>
       <path id="TimesNewRomanPSMT-41" d="M 2928 1419 
L 1288 1419 
L 1000 750 
Q 894 503 894 381 
Q 894 284 986 211 
Q 1078 138 1384 116 
L 1384 0 
L 50 0 
L 50 116 
Q 316 163 394 238 
Q 553 388 747 847 
L 2238 4334 
L 2347 4334 
L 3822 809 
Q 4000 384 4145 257 
Q 4291 131 4550 116 
L 4550 0 
L 2878 0 
L 2878 116 
Q 3131 128 3220 200 
Q 3309 272 3309 375 
Q 3309 513 3184 809 
L 2928 1419 
z
M 2841 1650 
L 2122 3363 
L 1384 1650 
L 2841 1650 
z
" transform="scale(0.015625)"/>
       <path id="TimesNewRomanPSMT-6c" d="M 1184 4444 
L 1184 647 
Q 1184 378 1223 290 
Q 1263 203 1344 158 
Q 1425 113 1647 113 
L 1647 0 
L 244 0 
L 244 113 
Q 441 113 512 153 
Q 584 194 625 287 
Q 666 381 666 647 
L 666 3247 
Q 666 3731 644 3842 
Q 622 3953 573 3993 
Q 525 4034 450 4034 
Q 369 4034 244 3984 
L 191 4094 
L 1044 4444 
L 1184 4444 
z
" transform="scale(0.015625)"/>
       <path id="TimesNewRomanPSMT-6f" d="M 1600 2947 
Q 2250 2947 2644 2453 
Q 2978 2031 2978 1484 
Q 2978 1100 2793 706 
Q 2609 313 2286 112 
Q 1963 -88 1566 -88 
Q 919 -88 538 428 
Q 216 863 216 1403 
Q 216 1797 411 2186 
Q 606 2575 925 2761 
Q 1244 2947 1600 2947 
z
M 1503 2744 
Q 1338 2744 1170 2645 
Q 1003 2547 900 2300 
Q 797 2053 797 1666 
Q 797 1041 1045 587 
Q 1294 134 1700 134 
Q 2003 134 2200 384 
Q 2397 634 2397 1244 
Q 2397 2006 2069 2444 
Q 1847 2744 1503 2744 
z
" transform="scale(0.015625)"/>
       <path id="TimesNewRomanPSMT-77" d="M 41 2863 
L 1241 2863 
L 1241 2747 
Q 1075 2734 1023 2687 
Q 972 2641 972 2553 
Q 972 2456 1025 2319 
L 1638 672 
L 2253 2013 
L 2091 2434 
Q 2016 2622 1894 2694 
Q 1825 2738 1638 2747 
L 1638 2863 
L 3000 2863 
L 3000 2747 
Q 2775 2738 2681 2666 
Q 2619 2616 2619 2506 
Q 2619 2444 2644 2378 
L 3294 734 
L 3897 2319 
Q 3959 2488 3959 2588 
Q 3959 2647 3898 2694 
Q 3838 2741 3659 2747 
L 3659 2863 
L 4563 2863 
L 4563 2747 
Q 4291 2706 4163 2378 
L 3206 -88 
L 3078 -88 
L 2363 1741 
L 1528 -88 
L 1413 -88 
L 494 2319 
Q 403 2547 315 2626 
Q 228 2706 41 2747 
L 41 2863 
z
" transform="scale(0.015625)"/>
       <path id="TimesNewRomanPSMT-61" d="M 1822 413 
Q 1381 72 1269 19 
Q 1100 -59 909 -59 
Q 613 -59 420 144 
Q 228 347 228 678 
Q 228 888 322 1041 
Q 450 1253 767 1440 
Q 1084 1628 1822 1897 
L 1822 2009 
Q 1822 2438 1686 2597 
Q 1550 2756 1291 2756 
Q 1094 2756 978 2650 
Q 859 2544 859 2406 
L 866 2225 
Q 866 2081 792 2003 
Q 719 1925 600 1925 
Q 484 1925 411 2006 
Q 338 2088 338 2228 
Q 338 2497 613 2722 
Q 888 2947 1384 2947 
Q 1766 2947 2009 2819 
Q 2194 2722 2281 2516 
Q 2338 2381 2338 1966 
L 2338 994 
Q 2338 584 2353 492 
Q 2369 400 2405 369 
Q 2441 338 2488 338 
Q 2538 338 2575 359 
Q 2641 400 2828 588 
L 2828 413 
Q 2478 -56 2159 -56 
Q 2006 -56 1915 50 
Q 1825 156 1822 413 
z
M 1822 616 
L 1822 1706 
Q 1350 1519 1213 1441 
Q 966 1303 859 1153 
Q 753 1003 753 825 
Q 753 600 887 451 
Q 1022 303 1197 303 
Q 1434 303 1822 616 
z
" transform="scale(0.015625)"/>
       <path id="TimesNewRomanPSMT-62" d="M 984 2369 
Q 1400 2947 1881 2947 
Q 2322 2947 2650 2570 
Q 2978 2194 2978 1541 
Q 2978 778 2472 313 
Q 2038 -88 1503 -88 
Q 1253 -88 995 3 
Q 738 94 469 275 
L 469 3241 
Q 469 3728 445 3840 
Q 422 3953 372 3993 
Q 322 4034 247 4034 
Q 159 4034 28 3984 
L -16 4094 
L 844 4444 
L 984 4444 
L 984 2369 
z
M 984 2169 
L 984 456 
Q 1144 300 1314 220 
Q 1484 141 1663 141 
Q 1947 141 2192 453 
Q 2438 766 2438 1363 
Q 2438 1913 2192 2208 
Q 1947 2503 1634 2503 
Q 1469 2503 1303 2419 
Q 1178 2356 984 2169 
z
" transform="scale(0.015625)"/>
       <path id="TimesNewRomanPSMT-64" d="M 2222 322 
Q 2013 103 1813 7 
Q 1613 -88 1381 -88 
Q 913 -88 563 304 
Q 213 697 213 1313 
Q 213 1928 600 2439 
Q 988 2950 1597 2950 
Q 1975 2950 2222 2709 
L 2222 3238 
Q 2222 3728 2198 3840 
Q 2175 3953 2125 3993 
Q 2075 4034 2000 4034 
Q 1919 4034 1784 3984 
L 1744 4094 
L 2597 4444 
L 2738 4444 
L 2738 1134 
Q 2738 631 2761 520 
Q 2784 409 2836 365 
Q 2888 322 2956 322 
Q 3041 322 3181 375 
L 3216 266 
L 2366 -88 
L 2222 -88 
L 2222 322 
z
M 2222 541 
L 2222 2016 
Q 2203 2228 2109 2403 
Q 2016 2578 1861 2667 
Q 1706 2756 1559 2756 
Q 1284 2756 1069 2509 
Q 784 2184 784 1559 
Q 784 928 1059 592 
Q 1334 256 1672 256 
Q 1956 256 2222 541 
z
" transform="scale(0.015625)"/>
       <path id="TimesNewRomanPSMT-73" d="M 2050 2947 
L 2050 1972 
L 1947 1972 
Q 1828 2431 1642 2597 
Q 1456 2763 1169 2763 
Q 950 2763 815 2647 
Q 681 2531 681 2391 
Q 681 2216 781 2091 
Q 878 1963 1175 1819 
L 1631 1597 
Q 2266 1288 2266 781 
Q 2266 391 1970 151 
Q 1675 -88 1309 -88 
Q 1047 -88 709 6 
Q 606 38 541 38 
Q 469 38 428 -44 
L 325 -44 
L 325 978 
L 428 978 
Q 516 541 762 319 
Q 1009 97 1316 97 
Q 1531 97 1667 223 
Q 1803 350 1803 528 
Q 1803 744 1651 891 
Q 1500 1038 1047 1263 
Q 594 1488 453 1669 
Q 313 1847 313 2119 
Q 313 2472 555 2709 
Q 797 2947 1181 2947 
Q 1350 2947 1591 2875 
Q 1750 2828 1803 2828 
Q 1853 2828 1881 2850 
Q 1909 2872 1947 2947 
L 2050 2947 
z
" transform="scale(0.015625)"/>
       <path id="TimesNewRomanPSMT-69" d="M 928 4444 
Q 1059 4444 1151 4351 
Q 1244 4259 1244 4128 
Q 1244 3997 1151 3903 
Q 1059 3809 928 3809 
Q 797 3809 703 3903 
Q 609 3997 609 4128 
Q 609 4259 701 4351 
Q 794 4444 928 4444 
z
M 1188 2947 
L 1188 647 
Q 1188 378 1227 289 
Q 1266 200 1342 156 
Q 1419 113 1622 113 
L 1622 0 
L 231 0 
L 231 113 
Q 441 113 512 153 
Q 584 194 626 287 
Q 669 381 669 647 
L 669 1750 
Q 669 2216 641 2353 
Q 619 2453 572 2492 
Q 525 2531 444 2531 
Q 356 2531 231 2484 
L 188 2597 
L 1050 2947 
L 1188 2947 
z
" transform="scale(0.015625)"/>
       <path id="TimesNewRomanPSMT-74" d="M 1031 3803 
L 1031 2863 
L 1700 2863 
L 1700 2644 
L 1031 2644 
L 1031 788 
Q 1031 509 1111 412 
Q 1191 316 1316 316 
Q 1419 316 1516 380 
Q 1613 444 1666 569 
L 1788 569 
Q 1678 263 1478 108 
Q 1278 -47 1066 -47 
Q 922 -47 784 33 
Q 647 113 581 261 
Q 516 409 516 719 
L 516 2644 
L 63 2644 
L 63 2747 
Q 234 2816 414 2980 
Q 594 3144 734 3369 
Q 806 3488 934 3803 
L 1031 3803 
z
" transform="scale(0.015625)"/>
      </defs>
      <use xlink:href="#TimesNewRomanPSMT-41"/>
      <use xlink:href="#TimesNewRomanPSMT-6c" transform="translate(72.216797 0)"/>
      <use xlink:href="#TimesNewRomanPSMT-6c" transform="translate(100 0)"/>
      <use xlink:href="#TimesNewRomanPSMT-6f" transform="translate(127.783203 0)"/>
      <use xlink:href="#TimesNewRomanPSMT-77" transform="translate(177.783203 0)"/>
      <use xlink:href="#TimesNewRomanPSMT-61" transform="translate(250 0)"/>
      <use xlink:href="#TimesNewRomanPSMT-62" transform="translate(294.384766 0)"/>
      <use xlink:href="#TimesNewRomanPSMT-6c" transform="translate(344.384766 0)"/>
      <use xlink:href="#TimesNewRomanPSMT-65" transform="translate(372.167969 0)"/>
      <use xlink:href="#TimesNewRomanPSMT-20" transform="translate(416.552734 0)"/>
      <use xlink:href="#TimesNewRomanPSMT-64" transform="translate(441.552734 0)"/>
      <use xlink:href="#TimesNewRomanPSMT-65" transform="translate(491.552734 0)"/>
      <use xlink:href="#TimesNewRomanPSMT-6e" transform="translate(535.9375 0)"/>
      <use xlink:href="#TimesNewRomanPSMT-73" transform="translate(585.9375 0)"/>
      <use xlink:href="#TimesNewRomanPSMT-69" transform="translate(624.853516 0)"/>
      <use xlink:href="#TimesNewRomanPSMT-74" transform="translate(652.636719 0)"/>
      <use xlink:href="#TimesNewRomanPSMT-79" transform="translate(680.419922 0)"/>
     </g>
    </g>
   </g>
   <g id="line2d_17">
    <path d="M 61.158849 263.57483 
L 64.251663 256.617334 
L 70.437289 246.421588 
L 73.530103 238.004686 
L 76.622916 231.692265 
L 79.715729 226.322342 
L 82.808542 217.837352 
L 85.901356 215.133441 
L 88.994169 214.987202 
L 92.086982 214.199209 
L 95.179795 211.570275 
L 98.272609 211.177693 
L 101.365422 207.822352 
L 104.458235 207.575096 
L 107.551048 205.304025 
L 110.643862 203.990486 
L 113.736675 203.137892 
L 116.829488 202.864165 
L 119.922302 202.0227 
L 123.015115 200.917291 
L 126.107928 200.743766 
L 129.200741 196.362389 
L 132.293555 195.78447 
L 135.386368 194.991195 
L 138.479181 188.940165 
L 141.571994 186.508965 
L 144.664808 182.972722 
L 147.757621 182.710519 
L 150.850434 180.428019 
L 153.943247 180.366731 
L 157.036061 179.112998 
L 160.128874 177.205324 
L 163.221687 176.033025 
L 181.778567 176.12341 
L 184.87138 177.020499 
L 187.964193 176.12341 
L 191.057007 176.12341 
L 194.14982 173.123449 
L 197.242633 173.123449 
L 200.335446 172.817131 
L 203.42826 173.123449 
L 206.521073 173.123449 
L 209.613886 174.429647 
L 212.7067 174.875889 
L 215.799513 179.802222 
L 218.892326 179.802222 
L 221.985139 181.780753 
L 225.077953 183.968009 
L 231.263579 183.968009 
L 234.356392 179.336878 
L 237.449206 179.336878 
L 240.542019 184.087288 
L 243.634832 179.336878 
L 246.727646 179.336878 
L 249.820459 184.235879 
L 252.913272 186.110995 
L 256.006085 187.376787 
L 259.098899 193.794913 
L 262.191712 194.543007 
L 271.470152 194.543007 
L 274.562965 195.304975 
L 277.655778 197.927246 
L 280.748591 197.216543 
L 283.841405 197.216543 
L 286.934218 209.763564 
L 290.027031 210.074798 
L 293.119845 216.615821 
L 296.212658 212.834376 
L 299.305471 215.167954 
L 302.398284 216.70891 
L 305.491098 217.258014 
L 308.583911 221.118092 
L 311.676724 227.987567 
L 314.769537 227.987567 
L 317.862351 228.203989 
L 320.955164 230.30188 
L 324.047977 230.30188 
L 327.14079 230.506258 
L 330.233604 231.968686 
L 333.326417 231.968686 
L 336.41923 232.831739 
L 339.512044 234.305117 
L 342.604857 234.305117 
L 345.69767 235.891398 
L 348.790483 235.516361 
L 351.883297 235.891398 
L 354.97611 237.367955 
L 358.068923 235.891398 
L 361.161736 235.891398 
L 364.25455 237.38109 
L 367.347363 238.408951 
L 370.440176 240.100946 
L 373.532989 240.100946 
L 376.625803 240.337071 
L 379.718616 242.69669 
L 382.811429 243.324542 
L 385.904243 243.324542 
L 388.997056 243.70094 
L 392.089869 244.889688 
L 395.182682 244.889688 
L 398.275496 247.146708 
L 407.553935 247.146708 
L 410.646749 247.46377 
L 413.739562 245.78922 
L 419.925188 245.78922 
L 423.018002 246.348374 
L 426.110815 247.46377 
L 429.203628 247.46377 
L 432.296442 248.268683 
L 435.389255 248.541554 
L 438.482068 248.485078 
L 444.667695 248.541554 
L 447.760508 248.541554 
L 450.853321 249.369842 
L 453.946134 249.451302 
L 457.038948 250.023921 
L 460.131761 250.03581 
L 463.224574 250.196595 
L 466.317388 251.02958 
L 472.503014 251.137584 
L 475.595827 251.645483 
L 478.688641 252.706723 
L 481.781454 252.706723 
L 484.874267 253.200049 
L 487.96708 254.281391 
L 491.059894 254.83051 
L 503.431147 254.985354 
L 506.52396 255.703109 
L 509.616773 256.568567 
L 518.895213 257.672639 
L 518.895213 257.672639 
" clip-path="url(#p8724443011)" style="fill: none; stroke: #0072b2; stroke-width: 2.6; stroke-linecap: square"/>
    <defs>
     <path id="mf532dc019a" d="M 0 2.6 
C 0.689528 2.6 1.350908 2.326048 1.838478 1.838478 
C 2.326048 1.350908 2.6 0.689528 2.6 0 
C 2.6 -0.689528 2.326048 -1.350908 1.838478 -1.838478 
C 1.350908 -2.326048 0.689528 -2.6 0 -2.6 
C -0.689528 -2.6 -1.350908 -2.326048 -1.838478 -1.838478 
C -2.326048 -1.350908 -2.6 -0.689528 -2.6 0 
C -2.6 0.689528 -2.326048 1.350908 -1.838478 1.838478 
C -1.350908 2.326048 -0.689528 2.6 0 2.6 
z
" style="stroke: #ffffff; stroke-width: 0.6"/>
    </defs>
    <g clip-path="url(#p8724443011)">
     <use xlink:href="#mf532dc019a" x="61.158849" y="263.57483" style="fill: #0072b2; stroke: #ffffff; stroke-width: 0.6"/>
     <use xlink:href="#mf532dc019a" x="79.715729" y="226.322342" style="fill: #0072b2; stroke: #ffffff; stroke-width: 0.6"/>
     <use xlink:href="#mf532dc019a" x="98.272609" y="211.177693" style="fill: #0072b2; stroke: #ffffff; stroke-width: 0.6"/>
     <use xlink:href="#mf532dc019a" x="116.829488" y="202.864165" style="fill: #0072b2; stroke: #ffffff; stroke-width: 0.6"/>
     <use xlink:href="#mf532dc019a" x="135.386368" y="194.991195" style="fill: #0072b2; stroke: #ffffff; stroke-width: 0.6"/>
     <use xlink:href="#mf532dc019a" x="153.943247" y="180.366731" style="fill: #0072b2; stroke: #ffffff; stroke-width: 0.6"/>
     <use xlink:href="#mf532dc019a" x="172.500127" y="175.92827" style="fill: #0072b2; stroke: #ffffff; stroke-width: 0.6"/>
     <use xlink:href="#mf532dc019a" x="191.057007" y="176.12341" style="fill: #0072b2; stroke: #ffffff; stroke-width: 0.6"/>
     <use xlink:href="#mf532dc019a" x="209.613886" y="174.429647" style="fill: #0072b2; stroke: #ffffff; stroke-width: 0.6"/>
     <use xlink:href="#mf532dc019a" x="228.170766" y="183.968009" style="fill: #0072b2; stroke: #ffffff; stroke-width: 0.6"/>
     <use xlink:href="#mf532dc019a" x="246.727646" y="179.336878" style="fill: #0072b2; stroke: #ffffff; stroke-width: 0.6"/>
     <use xlink:href="#mf532dc019a" x="265.284525" y="194.543007" style="fill: #0072b2; stroke: #ffffff; stroke-width: 0.6"/>
     <use xlink:href="#mf532dc019a" x="283.841405" y="197.216543" style="fill: #0072b2; stroke: #ffffff; stroke-width: 0.6"/>
     <use xlink:href="#mf532dc019a" x="302.398284" y="216.70891" style="fill: #0072b2; stroke: #ffffff; stroke-width: 0.6"/>
     <use xlink:href="#mf532dc019a" x="320.955164" y="230.30188" style="fill: #0072b2; stroke: #ffffff; stroke-width: 0.6"/>
     <use xlink:href="#mf532dc019a" x="339.512044" y="234.305117" style="fill: #0072b2; stroke: #ffffff; stroke-width: 0.6"/>
     <use xlink:href="#mf532dc019a" x="358.068923" y="235.891398" style="fill: #0072b2; stroke: #ffffff; stroke-width: 0.6"/>
     <use xlink:href="#mf532dc019a" x="376.625803" y="240.337071" style="fill: #0072b2; stroke: #ffffff; stroke-width: 0.6"/>
     <use xlink:href="#mf532dc019a" x="395.182682" y="244.889688" style="fill: #0072b2; stroke: #ffffff; stroke-width: 0.6"/>
     <use xlink:href="#mf532dc019a" x="413.739562" y="245.78922" style="fill: #0072b2; stroke: #ffffff; stroke-width: 0.6"/>
     <use xlink:href="#mf532dc019a" x="432.296442" y="248.268683" style="fill: #0072b2; stroke: #ffffff; stroke-width: 0.6"/>
     <use xlink:href="#mf532dc019a" x="450.853321" y="249.369842" style="fill: #0072b2; stroke: #ffffff; stroke-width: 0.6"/>
     <use xlink:href="#mf532dc019a" x="469.410201" y="251.02958" style="fill: #0072b2; stroke: #ffffff; stroke-width: 0.6"/>
     <use xlink:href="#mf532dc019a" x="487.96708" y="254.281391" style="fill: #0072b2; stroke: #ffffff; stroke-width: 0.6"/>
     <use xlink:href="#mf532dc019a" x="506.52396" y="255.703109" style="fill: #0072b2; stroke: #ffffff; stroke-width: 0.6"/>
    </g>
   </g>
   <g id="line2d_18">
    <path d="M 61.158849 214.671257 
L 64.251663 207.626789 
L 70.437289 195.306385 
L 73.530103 186.992889 
L 76.622916 183.855234 
L 79.715729 116.663774 
L 82.808542 104.413727 
L 85.901356 99.07422 
L 88.994169 87.023064 
L 92.086982 80.650078 
L 95.179795 79.341325 
L 98.272609 72.489713 
L 107.551048 72.443559 
L 110.643862 73.156366 
L 113.736675 73.156366 
L 116.829488 72.443559 
L 119.922302 72.443559 
L 123.015115 68.912208 
L 126.107928 53.724626 
L 129.200741 50.934106 
L 132.293555 43.762328 
L 135.386368 32.48392 
L 379.718616 32.48392 
L 382.811429 36.474736 
L 385.904243 43.402272 
L 388.997056 44.022921 
L 398.275496 44.052742 
L 401.368309 45.620978 
L 404.461122 45.620978 
L 407.553935 49.822584 
L 410.646749 49.822584 
L 413.739562 54.987277 
L 416.832375 55.912414 
L 419.925188 59.495407 
L 423.018002 59.55796 
L 426.110815 62.495369 
L 429.203628 63.495755 
L 432.296442 67.247782 
L 435.389255 67.664962 
L 438.482068 67.664962 
L 441.574881 71.886995 
L 444.667695 71.886995 
L 447.760508 77.013741 
L 450.853321 79.883219 
L 453.946134 83.469091 
L 457.038948 83.469091 
L 460.131761 93.944378 
L 463.224574 99.407565 
L 466.317388 111.973718 
L 469.410201 122.41346 
L 472.503014 122.41346 
L 475.595827 127.934579 
L 478.688641 131.733653 
L 481.781454 133.111393 
L 484.874267 133.111393 
L 487.96708 133.451974 
L 491.059894 134.471695 
L 494.152707 137.489896 
L 500.338333 141.360283 
L 503.431147 141.728287 
L 509.616773 150.302458 
L 515.8024 151.296939 
L 518.895213 153.958005 
L 518.895213 153.958005 
" clip-path="url(#p8724443011)" style="fill: none; stroke: #e69f00; stroke-width: 2.6; stroke-linecap: square"/>
    <defs>
     <path id="m456a610d4c" d="M 0 2.6 
C 0.689528 2.6 1.350908 2.326048 1.838478 1.838478 
C 2.326048 1.350908 2.6 0.689528 2.6 0 
C 2.6 -0.689528 2.326048 -1.350908 1.838478 -1.838478 
C 1.350908 -2.326048 0.689528 -2.6 0 -2.6 
C -0.689528 -2.6 -1.350908 -2.326048 -1.838478 -1.838478 
C -2.326048 -1.350908 -2.6 -0.689528 -2.6 0 
C -2.6 0.689528 -2.326048 1.350908 -1.838478 1.838478 
C -1.350908 2.326048 -0.689528 2.6 0 2.6 
z
" style="stroke: #ffffff; stroke-width: 0.6"/>
    </defs>
    <g clip-path="url(#p8724443011)">
     <use xlink:href="#m456a610d4c" x="61.158849" y="214.671257" style="fill: #e69f00; stroke: #ffffff; stroke-width: 0.6"/>
     <use xlink:href="#m456a610d4c" x="79.715729" y="116.663774" style="fill: #e69f00; stroke: #ffffff; stroke-width: 0.6"/>
     <use xlink:href="#m456a610d4c" x="98.272609" y="72.489713" style="fill: #e69f00; stroke: #ffffff; stroke-width: 0.6"/>
     <use xlink:href="#m456a610d4c" x="116.829488" y="72.443559" style="fill: #e69f00; stroke: #ffffff; stroke-width: 0.6"/>
     <use xlink:href="#m456a610d4c" x="135.386368" y="32.48392" style="fill: #e69f00; stroke: #ffffff; stroke-width: 0.6"/>
     <use xlink:href="#m456a610d4c" x="153.943247" y="32.48392" style="fill: #e69f00; stroke: #ffffff; stroke-width: 0.6"/>
     <use xlink:href="#m456a610d4c" x="172.500127" y="32.48392" style="fill: #e69f00; stroke: #ffffff; stroke-width: 0.6"/>
     <use xlink:href="#m456a610d4c" x="191.057007" y="32.48392" style="fill: #e69f00; stroke: #ffffff; stroke-width: 0.6"/>
     <use xlink:href="#m456a610d4c" x="209.613886" y="32.48392" style="fill: #e69f00; stroke: #ffffff; stroke-width: 0.6"/>
     <use xlink:href="#m456a610d4c" x="228.170766" y="32.48392" style="fill: #e69f00; stroke: #ffffff; stroke-width: 0.6"/>
     <use xlink:href="#m456a610d4c" x="246.727646" y="32.48392" style="fill: #e69f00; stroke: #ffffff; stroke-width: 0.6"/>
     <use xlink:href="#m456a610d4c" x="265.284525" y="32.48392" style="fill: #e69f00; stroke: #ffffff; stroke-width: 0.6"/>
     <use xlink:href="#m456a610d4c" x="283.841405" y="32.48392" style="fill: #e69f00; stroke: #ffffff; stroke-width: 0.6"/>
     <use xlink:href="#m456a610d4c" x="302.398284" y="32.48392" style="fill: #e69f00; stroke: #ffffff; stroke-width: 0.6"/>
     <use xlink:href="#m456a610d4c" x="320.955164" y="32.48392" style="fill: #e69f00; stroke: #ffffff; stroke-width: 0.6"/>
     <use xlink:href="#m456a610d4c" x="339.512044" y="32.48392" style="fill: #e69f00; stroke: #ffffff; stroke-width: 0.6"/>
     <use xlink:href="#m456a610d4c" x="358.068923" y="32.48392" style="fill: #e69f00; stroke: #ffffff; stroke-width: 0.6"/>
     <use xlink:href="#m456a610d4c" x="376.625803" y="32.48392" style="fill: #e69f00; stroke: #ffffff; stroke-width: 0.6"/>
     <use xlink:href="#m456a610d4c" x="395.182682" y="44.052742" style="fill: #e69f00; stroke: #ffffff; stroke-width: 0.6"/>
     <use xlink:href="#m456a610d4c" x="413.739562" y="54.987277" style="fill: #e69f00; stroke: #ffffff; stroke-width: 0.6"/>
     <use xlink:href="#m456a610d4c" x="432.296442" y="67.247782" style="fill: #e69f00; stroke: #ffffff; stroke-width: 0.6"/>
     <use xlink:href="#m456a610d4c" x="450.853321" y="79.883219" style="fill: #e69f00; stroke: #ffffff; stroke-width: 0.6"/>
     <use xlink:href="#m456a610d4c" x="469.410201" y="122.41346" style="fill: #e69f00; stroke: #ffffff; stroke-width: 0.6"/>
     <use xlink:href="#m456a610d4c" x="487.96708" y="133.451974" style="fill: #e69f00; stroke: #ffffff; stroke-width: 0.6"/>
     <use xlink:href="#m456a610d4c" x="506.52396" y="145.966995" style="fill: #e69f00; stroke: #ffffff; stroke-width: 0.6"/>
    </g>
   </g>
   <g id="line2d_19">
    <path d="M 61.158849 32.48392 
L 518.895213 32.48392 
L 518.895213 32.48392 
" clip-path="url(#p8724443011)" style="fill: none; stroke: #009e73; stroke-width: 2.6; stroke-linecap: square"/>
    <defs>
     <path id="m4ec6ed0142" d="M 0 2.6 
C 0.689528 2.6 1.350908 2.326048 1.838478 1.838478 
C 2.326048 1.350908 2.6 0.689528 2.6 0 
C 2.6 -0.689528 2.326048 -1.350908 1.838478 -1.838478 
C 1.350908 -2.326048 0.689528 -2.6 0 -2.6 
C -0.689528 -2.6 -1.350908 -2.326048 -1.838478 -1.838478 
C -2.326048 -1.350908 -2.6 -0.689528 -2.6 0 
C -2.6 0.689528 -2.326048 1.350908 -1.838478 1.838478 
C -1.350908 2.326048 -0.689528 2.6 0 2.6 
z
" style="stroke: #ffffff; stroke-width: 0.6"/>
    </defs>
    <g clip-path="url(#p8724443011)">
     <use xlink:href="#m4ec6ed0142" x="61.158849" y="32.48392" style="fill: #009e73; stroke: #ffffff; stroke-width: 0.6"/>
     <use xlink:href="#m4ec6ed0142" x="79.715729" y="32.48392" style="fill: #009e73; stroke: #ffffff; stroke-width: 0.6"/>
     <use xlink:href="#m4ec6ed0142" x="98.272609" y="32.48392" style="fill: #009e73; stroke: #ffffff; stroke-width: 0.6"/>
     <use xlink:href="#m4ec6ed0142" x="116.829488" y="32.48392" style="fill: #009e73; stroke: #ffffff; stroke-width: 0.6"/>
     <use xlink:href="#m4ec6ed0142" x="135.386368" y="32.48392" style="fill: #009e73; stroke: #ffffff; stroke-width: 0.6"/>
     <use xlink:href="#m4ec6ed0142" x="153.943247" y="32.48392" style="fill: #009e73; stroke: #ffffff; stroke-width: 0.6"/>
     <use xlink:href="#m4ec6ed0142" x="172.500127" y="32.48392" style="fill: #009e73; stroke: #ffffff; stroke-width: 0.6"/>
     <use xlink:href="#m4ec6ed0142" x="191.057007" y="32.48392" style="fill: #009e73; stroke: #ffffff; stroke-width: 0.6"/>
     <use xlink:href="#m4ec6ed0142" x="209.613886" y="32.48392" style="fill: #009e73; stroke: #ffffff; stroke-width: 0.6"/>
     <use xlink:href="#m4ec6ed0142" x="228.170766" y="32.48392" style="fill: #009e73; stroke: #ffffff; stroke-width: 0.6"/>
     <use xlink:href="#m4ec6ed0142" x="246.727646" y="32.48392" style="fill: #009e73; stroke: #ffffff; stroke-width: 0.6"/>
     <use xlink:href="#m4ec6ed0142" x="265.284525" y="32.48392" style="fill: #009e73; stroke: #ffffff; stroke-width: 0.6"/>
     <use xlink:href="#m4ec6ed0142" x="283.841405" y="32.48392" style="fill: #009e73; stroke: #ffffff; stroke-width: 0.6"/>
     <use xlink:href="#m4ec6ed0142" x="302.398284" y="32.48392" style="fill: #009e73; stroke: #ffffff; stroke-width: 0.6"/>
     <use xlink:href="#m4ec6ed0142" x="320.955164" y="32.48392" style="fill: #009e73; stroke: #ffffff; stroke-width: 0.6"/>
     <use xlink:href="#m4ec6ed0142" x="339.512044" y="32.48392" style="fill: #009e73; stroke: #ffffff; stroke-width: 0.6"/>
     <use xlink:href="#m4ec6ed0142" x="358.068923" y="32.48392" style="fill: #009e73; stroke: #ffffff; stroke-width: 0.6"/>
     <use xlink:href="#m4ec6ed0142" x="376.625803" y="32.48392" style="fill: #009e73; stroke: #ffffff; stroke-width: 0.6"/>
     <use xlink:href="#m4ec6ed0142" x="395.182682" y="32.48392" style="fill: #009e73; stroke: #ffffff; stroke-width: 0.6"/>
     <use xlink:href="#m4ec6ed0142" x="413.739562" y="32.48392" style="fill: #009e73; stroke: #ffffff; stroke-width: 0.6"/>
     <use xlink:href="#m4ec6ed0142" x="432.296442" y="32.48392" style="fill: #009e73; stroke: #ffffff; stroke-width: 0.6"/>
     <use xlink:href="#m4ec6ed0142" x="450.853321" y="32.48392" style="fill: #009e73; stroke: #ffffff; stroke-width: 0.6"/>
     <use xlink:href="#m4ec6ed0142" x="469.410201" y="32.48392" style="fill: #009e73; stroke: #ffffff; stroke-width: 0.6"/>
     <use xlink:href="#m4ec6ed0142" x="487.96708" y="32.48392" style="fill: #009e73; stroke: #ffffff; stroke-width: 0.6"/>
     <use xlink:href="#m4ec6ed0142" x="506.52396" y="32.48392" style="fill: #009e73; stroke: #ffffff; stroke-width: 0.6"/>
    </g>
   </g>
   <g id="patch_3">
    <path d="M 38.272031 275.129375 
L 38.272031 20.929375 
" style="fill: none; stroke: #000000; stroke-linejoin: miter; stroke-linecap: square"/>
   </g>
   <g id="patch_4">
    <path d="M 541.782031 275.129375 
L 541.782031 20.929375 
" style="fill: none; stroke: #000000; stroke-linejoin: miter; stroke-linecap: square"/>
   </g>
   <g id="patch_5">
    <path d="M 38.272031 275.129375 
L 541.782031 275.129375 
" style="fill: none; stroke: #000000; stroke-linejoin: miter; stroke-linecap: square"/>
   </g>
   <g id="patch_6">
    <path d="M 38.272031 20.929375 
L 541.782031 20.929375 
" style="fill: none; stroke: #000000; stroke-linejoin: miter; stroke-linecap: square"/>
   </g>
   <g id="text_19">
    <!-- Figure 8b: Allowable Density Sensitivity to Threshold -->
    <g transform="translate(130.553906 10.929375) scale(0.14 -0.14)">
     <defs>
      <path id="TimesNewRomanPS-BoldMT-46" d="M 1759 3994 
L 1759 2253 
L 1881 2253 
Q 2163 2253 2341 2337 
Q 2519 2422 2642 2622 
Q 2766 2822 2803 3163 
L 2913 3163 
L 2913 1034 
L 2803 1034 
Q 2744 1638 2480 1830 
Q 2216 2022 1881 2022 
L 1759 2022 
L 1759 725 
Q 1759 400 1795 319 
Q 1831 238 1936 177 
Q 2041 116 2219 116 
L 2359 116 
L 2359 0 
L 144 0 
L 144 116 
L 284 116 
Q 469 116 581 181 
Q 663 225 706 331 
Q 741 406 741 725 
L 741 3513 
Q 741 3838 706 3919 
Q 672 4000 567 4061 
Q 463 4122 284 4122 
L 144 4122 
L 144 4238 
L 3719 4238 
L 3719 3022 
L 3591 3022 
Q 3547 3450 3367 3656 
Q 3188 3863 2847 3947 
Q 2659 3994 2153 3994 
L 1759 3994 
z
" transform="scale(0.015625)"/>
      <path id="TimesNewRomanPS-BoldMT-69" d="M 919 4338 
Q 1122 4338 1262 4195 
Q 1403 4053 1403 3853 
Q 1403 3653 1261 3512 
Q 1119 3372 919 3372 
Q 719 3372 578 3512 
Q 438 3653 438 3853 
Q 438 4053 578 4195 
Q 719 4338 919 4338 
z
M 1356 2922 
L 1356 606 
Q 1356 297 1428 211 
Q 1500 125 1709 113 
L 1709 0 
L 131 0 
L 131 113 
Q 325 119 419 225 
Q 481 297 481 606 
L 481 2313 
Q 481 2622 409 2708 
Q 338 2794 131 2806 
L 131 2922 
L 1356 2922 
z
" transform="scale(0.015625)"/>
      <path id="TimesNewRomanPS-BoldMT-67" d="M 2091 2888 
L 3075 2888 
L 3075 2544 
L 2516 2544 
Q 2669 2391 2728 2266 
Q 2803 2097 2803 1913 
Q 2803 1600 2629 1370 
Q 2456 1141 2157 1011 
Q 1859 881 1628 881 
Q 1609 881 1253 897 
Q 1113 897 1017 805 
Q 922 713 922 584 
Q 922 472 1008 400 
Q 1094 328 1288 328 
L 1828 334 
Q 2484 334 2731 191 
Q 3084 -9 3084 -425 
Q 3084 -691 2921 -908 
Q 2759 -1125 2494 -1228 
Q 2091 -1381 1566 -1381 
Q 1172 -1381 847 -1304 
Q 522 -1228 381 -1092 
Q 241 -956 241 -806 
Q 241 -663 348 -548 
Q 456 -434 750 -356 
Q 344 -156 344 200 
Q 344 416 509 619 
Q 675 822 1034 972 
Q 616 1125 428 1375 
Q 241 1625 241 1953 
Q 241 2381 591 2695 
Q 941 3009 1491 3009 
Q 1781 3009 2091 2888 
z
M 1550 2816 
Q 1369 2816 1244 2633 
Q 1119 2450 1119 1875 
Q 1119 1409 1242 1236 
Q 1366 1063 1534 1063 
Q 1722 1063 1847 1234 
Q 1972 1406 1972 1903 
Q 1972 2463 1831 2666 
Q 1731 2816 1550 2816 
z
M 1366 -431 
Q 1047 -431 944 -484 
Q 766 -581 766 -747 
Q 766 -906 950 -1036 
Q 1134 -1166 1644 -1166 
Q 2078 -1166 2326 -1050 
Q 2575 -934 2575 -725 
Q 2575 -647 2528 -594 
Q 2444 -500 2273 -465 
Q 2103 -431 1366 -431 
z
" transform="scale(0.015625)"/>
      <path id="TimesNewRomanPS-BoldMT-75" d="M 3038 2922 
L 3038 634 
Q 3038 300 3100 217 
Q 3163 134 3353 113 
L 3353 0 
L 2163 0 
L 2163 391 
Q 1953 141 1743 26 
Q 1534 -88 1275 -88 
Q 1028 -88 836 64 
Q 644 216 578 419 
Q 513 622 513 1128 
L 513 2288 
Q 513 2619 452 2700 
Q 391 2781 197 2806 
L 197 2922 
L 1388 2922 
L 1388 925 
Q 1388 613 1417 522 
Q 1447 431 1511 384 
Q 1575 338 1659 338 
Q 1772 338 1863 397 
Q 1988 478 2163 725 
L 2163 2288 
Q 2163 2619 2102 2700 
Q 2041 2781 1847 2806 
L 1847 2922 
L 3038 2922 
z
" transform="scale(0.015625)"/>
      <path id="TimesNewRomanPS-BoldMT-72" d="M 1428 2922 
L 1428 2259 
Q 1719 2713 1937 2861 
Q 2156 3009 2359 3009 
Q 2534 3009 2639 2901 
Q 2744 2794 2744 2597 
Q 2744 2388 2642 2272 
Q 2541 2156 2397 2156 
Q 2231 2156 2109 2262 
Q 1988 2369 1966 2381 
Q 1934 2400 1894 2400 
Q 1803 2400 1722 2331 
Q 1594 2225 1528 2028 
Q 1428 1725 1428 1359 
L 1428 688 
L 1431 513 
Q 1431 334 1453 284 
Q 1491 200 1564 161 
Q 1638 122 1813 113 
L 1813 0 
L 234 0 
L 234 113 
Q 425 128 492 217 
Q 559 306 559 688 
L 559 2303 
Q 559 2553 534 2622 
Q 503 2709 443 2750 
Q 384 2791 234 2806 
L 234 2922 
L 1428 2922 
z
" transform="scale(0.015625)"/>
      <path id="TimesNewRomanPS-BoldMT-65" d="M 2691 1566 
L 1088 1566 
Q 1116 984 1397 647 
Q 1613 388 1916 388 
Q 2103 388 2256 492 
Q 2409 597 2584 869 
L 2691 800 
Q 2453 316 2165 114 
Q 1878 -88 1500 -88 
Q 850 -88 516 413 
Q 247 816 247 1413 
Q 247 2144 642 2576 
Q 1038 3009 1569 3009 
Q 2013 3009 2339 2645 
Q 2666 2281 2691 1566 
z
M 1922 1775 
Q 1922 2278 1867 2465 
Q 1813 2653 1697 2750 
Q 1631 2806 1522 2806 
Q 1359 2806 1256 2647 
Q 1072 2369 1072 1884 
L 1072 1775 
L 1922 1775 
z
" transform="scale(0.015625)"/>
      <path id="TimesNewRomanPS-BoldMT-20" transform="scale(0.015625)"/>
      <path id="TimesNewRomanPS-BoldMT-38" d="M 2181 2394 
Q 2628 2066 2801 1783 
Q 2975 1500 2975 1134 
Q 2975 622 2589 267 
Q 2203 -88 1541 -88 
Q 913 -88 569 221 
Q 225 531 225 978 
Q 225 1319 423 1575 
Q 622 1831 1084 2044 
Q 581 2428 439 2672 
Q 297 2916 297 3238 
Q 297 3663 658 3986 
Q 1019 4309 1647 4309 
Q 2253 4309 2579 4023 
Q 2906 3738 2906 3338 
Q 2906 3038 2729 2808 
Q 2553 2578 2181 2394 
z
M 1944 2553 
Q 2059 2709 2115 2903 
Q 2172 3097 2172 3328 
Q 2172 3734 1997 3950 
Q 1866 4116 1634 4116 
Q 1425 4116 1278 3964 
Q 1131 3813 1131 3588 
Q 1131 3359 1295 3114 
Q 1459 2869 1944 2553 
z
M 1319 1894 
Q 1222 1806 1181 1734 
Q 1119 1625 1069 1415 
Q 1019 1206 1019 978 
Q 1019 684 1094 486 
Q 1169 288 1308 200 
Q 1447 113 1594 113 
Q 1822 113 1978 280 
Q 2134 447 2134 738 
Q 2134 1344 1319 1894 
z
" transform="scale(0.015625)"/>
      <path id="TimesNewRomanPS-BoldMT-62" d="M 1347 4238 
L 1347 2628 
Q 1716 3009 2153 3009 
Q 2453 3009 2718 2832 
Q 2984 2656 3134 2331 
Q 3284 2006 3284 1581 
Q 3284 1103 3093 712 
Q 2903 322 2584 117 
Q 2266 -88 1856 -88 
Q 1619 -88 1434 -12 
Q 1250 63 1072 231 
L 588 -84 
L 481 -84 
L 481 3631 
Q 481 3884 459 3944 
Q 428 4031 361 4073 
Q 294 4116 134 4122 
L 134 4238 
L 1347 4238 
z
M 1347 2350 
L 1347 1050 
Q 1347 653 1366 544 
Q 1397 359 1515 245 
Q 1634 131 1819 131 
Q 1978 131 2092 222 
Q 2206 313 2282 581 
Q 2359 850 2359 1550 
Q 2359 2222 2191 2472 
Q 2069 2653 1863 2653 
Q 1594 2653 1347 2350 
z
" transform="scale(0.015625)"/>
      <path id="TimesNewRomanPS-BoldMT-3a" d="M 1069 3006 
Q 1284 3006 1436 2854 
Q 1588 2703 1588 2488 
Q 1588 2272 1436 2120 
Q 1284 1969 1069 1969 
Q 853 1969 701 2120 
Q 550 2272 550 2488 
Q 550 2703 701 2854 
Q 853 3006 1069 3006 
z
M 1066 963 
Q 1284 963 1436 809 
Q 1588 656 1588 441 
Q 1588 225 1434 73 
Q 1281 -78 1066 -78 
Q 850 -78 698 73 
Q 547 225 547 441 
Q 547 656 698 809 
Q 850 963 1066 963 
z
" transform="scale(0.015625)"/>
      <path id="TimesNewRomanPS-BoldMT-41" d="M 2663 1206 
L 1166 1206 
L 988 794 
Q 900 588 900 453 
Q 900 275 1044 191 
Q 1128 141 1459 116 
L 1459 0 
L 50 0 
L 50 116 
Q 278 150 425 304 
Q 572 459 788 944 
L 2303 4325 
L 2363 4325 
L 3891 850 
Q 4109 356 4250 228 
Q 4356 131 4550 116 
L 4550 0 
L 2500 0 
L 2500 116 
L 2584 116 
Q 2831 116 2931 184 
Q 3000 234 3000 328 
Q 3000 384 2981 444 
Q 2975 472 2888 678 
L 2663 1206 
z
M 2556 1438 
L 1925 2897 
L 1275 1438 
L 2556 1438 
z
" transform="scale(0.015625)"/>
      <path id="TimesNewRomanPS-BoldMT-6c" d="M 1359 4238 
L 1359 606 
Q 1359 297 1431 211 
Q 1503 125 1713 113 
L 1713 0 
L 134 0 
L 134 113 
Q 328 119 422 225 
Q 484 297 484 606 
L 484 3631 
Q 484 3938 412 4023 
Q 341 4109 134 4122 
L 134 4238 
L 1359 4238 
z
" transform="scale(0.015625)"/>
      <path id="TimesNewRomanPS-BoldMT-6f" d="M 1594 3009 
Q 1975 3009 2303 2812 
Q 2631 2616 2801 2253 
Q 2972 1891 2972 1459 
Q 2972 838 2656 419 
Q 2275 -88 1603 -88 
Q 944 -88 587 375 
Q 231 838 231 1447 
Q 231 2075 595 2542 
Q 959 3009 1594 3009 
z
M 1606 2788 
Q 1447 2788 1333 2667 
Q 1219 2547 1183 2192 
Q 1147 1838 1147 1206 
Q 1147 872 1191 581 
Q 1225 359 1337 243 
Q 1450 128 1594 128 
Q 1734 128 1828 206 
Q 1950 313 1991 503 
Q 2053 800 2053 1703 
Q 2053 2234 1993 2432 
Q 1934 2631 1819 2722 
Q 1738 2788 1606 2788 
z
" transform="scale(0.015625)"/>
      <path id="TimesNewRomanPS-BoldMT-77" d="M 3113 -88 
L 2313 2056 
L 1528 -88 
L 1366 -88 
L 588 2031 
Q 413 2516 291 2663 
Q 213 2763 53 2806 
L 53 2922 
L 1528 2922 
L 1528 2806 
Q 1378 2806 1322 2762 
Q 1266 2719 1266 2663 
Q 1266 2609 1366 2344 
L 1794 1203 
L 2206 2344 
L 2175 2419 
Q 2081 2653 2011 2717 
Q 1941 2781 1794 2806 
L 1794 2922 
L 3291 2922 
L 3291 2806 
Q 3116 2797 3069 2758 
Q 3022 2719 3022 2647 
Q 3022 2578 3113 2344 
L 3525 1203 
L 3900 2253 
Q 3981 2478 3981 2559 
Q 3981 2681 3922 2737 
Q 3863 2794 3691 2806 
L 3691 2922 
L 4556 2922 
L 4556 2806 
Q 4413 2788 4328 2705 
Q 4244 2622 4109 2234 
L 3291 -88 
L 3113 -88 
z
" transform="scale(0.015625)"/>
      <path id="TimesNewRomanPS-BoldMT-61" d="M 1828 431 
Q 1294 -41 869 -41 
Q 619 -41 453 123 
Q 288 288 288 534 
Q 288 869 575 1136 
Q 863 1403 1828 1847 
L 1828 2141 
Q 1828 2472 1792 2558 
Q 1756 2644 1656 2708 
Q 1556 2772 1431 2772 
Q 1228 2772 1097 2681 
Q 1016 2625 1016 2550 
Q 1016 2484 1103 2388 
Q 1222 2253 1222 2128 
Q 1222 1975 1108 1867 
Q 994 1759 809 1759 
Q 613 1759 480 1878 
Q 347 1997 347 2156 
Q 347 2381 525 2586 
Q 703 2791 1022 2900 
Q 1341 3009 1684 3009 
Q 2100 3009 2342 2832 
Q 2584 2656 2656 2450 
Q 2700 2319 2700 1847 
L 2700 713 
Q 2700 513 2715 461 
Q 2731 409 2762 384 
Q 2794 359 2834 359 
Q 2916 359 3000 475 
L 3094 400 
Q 2938 169 2770 64 
Q 2603 -41 2391 -41 
Q 2141 -41 2000 76 
Q 1859 194 1828 431 
z
M 1828 659 
L 1828 1638 
Q 1450 1416 1266 1163 
Q 1144 994 1144 822 
Q 1144 678 1247 569 
Q 1325 484 1466 484 
Q 1622 484 1828 659 
z
" transform="scale(0.015625)"/>
      <path id="TimesNewRomanPS-BoldMT-44" d="M 84 0 
L 84 116 
L 225 116 
Q 409 116 507 173 
Q 606 231 653 331 
Q 681 397 681 725 
L 681 3513 
Q 681 3838 647 3919 
Q 613 4000 508 4061 
Q 403 4122 225 4122 
L 84 4122 
L 84 4238 
L 1981 4238 
Q 2741 4238 3203 4031 
Q 3769 3778 4061 3265 
Q 4353 2753 4353 2106 
Q 4353 1659 4209 1282 
Q 4066 906 3837 661 
Q 3609 416 3311 267 
Q 3013 119 2581 38 
Q 2391 0 1981 0 
L 84 0 
z
M 1700 3997 
L 1700 691 
Q 1700 428 1725 368 
Q 1750 309 1809 278 
Q 1894 231 2053 231 
Q 2575 231 2850 588 
Q 3225 1069 3225 2081 
Q 3225 2897 2969 3384 
Q 2766 3766 2447 3903 
Q 2222 4000 1700 3997 
z
" transform="scale(0.015625)"/>
      <path id="TimesNewRomanPS-BoldMT-6e" d="M 1409 2922 
L 1409 2544 
Q 1634 2788 1840 2898 
Q 2047 3009 2284 3009 
Q 2569 3009 2756 2851 
Q 2944 2694 3006 2459 
Q 3056 2281 3056 1775 
L 3056 638 
Q 3056 300 3117 217 
Q 3178 134 3372 113 
L 3372 0 
L 1894 0 
L 1894 113 
Q 2059 134 2131 250 
Q 2181 328 2181 638 
L 2181 1938 
Q 2181 2297 2153 2390 
Q 2125 2484 2058 2536 
Q 1991 2588 1909 2588 
Q 1641 2588 1409 2203 
L 1409 638 
Q 1409 309 1470 221 
Q 1531 134 1697 113 
L 1697 0 
L 219 0 
L 219 113 
Q 403 131 481 231 
Q 534 300 534 638 
L 534 2288 
Q 534 2619 473 2700 
Q 413 2781 219 2806 
L 219 2922 
L 1409 2922 
z
" transform="scale(0.015625)"/>
      <path id="TimesNewRomanPS-BoldMT-73" d="M 2063 3003 
L 2109 2006 
L 2003 2006 
Q 1813 2450 1608 2612 
Q 1403 2775 1200 2775 
Q 1072 2775 981 2689 
Q 891 2603 891 2491 
Q 891 2406 953 2328 
Q 1053 2200 1512 1889 
Q 1972 1578 2117 1361 
Q 2263 1144 2263 875 
Q 2263 631 2141 397 
Q 2019 163 1797 37 
Q 1575 -88 1306 -88 
Q 1097 -88 747 44 
Q 653 78 619 78 
Q 516 78 447 -78 
L 344 -78 
L 294 972 
L 400 972 
Q 541 559 786 353 
Q 1031 147 1250 147 
Q 1400 147 1495 239 
Q 1591 331 1591 463 
Q 1591 613 1497 722 
Q 1403 831 1078 1053 
Q 600 1384 459 1559 
Q 253 1816 253 2125 
Q 253 2463 486 2736 
Q 719 3009 1159 3009 
Q 1397 3009 1619 2894 
Q 1703 2847 1756 2847 
Q 1813 2847 1847 2870 
Q 1881 2894 1956 3003 
L 2063 3003 
z
" transform="scale(0.015625)"/>
      <path id="TimesNewRomanPS-BoldMT-74" d="M 1375 3991 
L 1375 2922 
L 2069 2922 
L 2069 2613 
L 1375 2613 
L 1375 809 
Q 1375 556 1398 482 
Q 1422 409 1481 364 
Q 1541 319 1591 319 
Q 1794 319 1975 628 
L 2069 559 
Q 1816 -41 1247 -41 
Q 969 -41 776 114 
Q 584 269 531 459 
Q 500 566 500 1034 
L 500 2613 
L 119 2613 
L 119 2722 
Q 513 3000 789 3306 
Q 1066 3613 1272 3991 
L 1375 3991 
z
" transform="scale(0.015625)"/>
      <path id="TimesNewRomanPS-BoldMT-79" d="M 1556 -119 
L 613 2047 
Q 400 2538 298 2650 
Q 197 2763 53 2806 
L 53 2922 
L 1606 2922 
L 1606 2806 
Q 1453 2800 1390 2747 
Q 1328 2694 1328 2619 
Q 1328 2500 1484 2150 
L 1984 1006 
L 2325 1891 
Q 2509 2363 2509 2547 
Q 2509 2663 2432 2731 
Q 2356 2800 2163 2806 
L 2163 2922 
L 3141 2922 
L 3141 2806 
Q 2997 2791 2906 2695 
Q 2816 2600 2603 2047 
L 1769 -119 
Q 1453 -931 1300 -1119 
Q 1084 -1381 759 -1381 
Q 500 -1381 339 -1232 
Q 178 -1084 178 -875 
Q 178 -694 289 -575 
Q 400 -456 563 -456 
Q 719 -456 814 -556 
Q 909 -656 913 -866 
Q 916 -984 941 -1019 
Q 966 -1053 1013 -1053 
Q 1088 -1053 1172 -963 
Q 1297 -831 1466 -363 
L 1556 -119 
z
" transform="scale(0.015625)"/>
      <path id="TimesNewRomanPS-BoldMT-53" d="M 3006 4334 
L 3041 2922 
L 2913 2922 
Q 2822 3453 2467 3776 
Q 2113 4100 1700 4100 
Q 1381 4100 1195 3929 
Q 1009 3759 1009 3538 
Q 1009 3397 1075 3288 
Q 1166 3141 1366 2997 
Q 1513 2894 2044 2631 
Q 2788 2266 3047 1941 
Q 3303 1616 3303 1197 
Q 3303 666 2889 283 
Q 2475 -100 1838 -100 
Q 1638 -100 1459 -59 
Q 1281 -19 1013 94 
Q 863 156 766 156 
Q 684 156 593 93 
Q 503 31 447 -97 
L 331 -97 
L 331 1503 
L 447 1503 
Q 584 828 976 473 
Q 1369 119 1822 119 
Q 2172 119 2380 309 
Q 2588 500 2588 753 
Q 2588 903 2508 1043 
Q 2428 1184 2265 1311 
Q 2103 1438 1691 1641 
Q 1113 1925 859 2125 
Q 606 2325 470 2572 
Q 334 2819 334 3116 
Q 334 3622 706 3978 
Q 1078 4334 1644 4334 
Q 1850 4334 2044 4284 
Q 2191 4247 2402 4145 
Q 2613 4044 2697 4044 
Q 2778 4044 2825 4094 
Q 2872 4144 2913 4334 
L 3006 4334 
z
" transform="scale(0.015625)"/>
      <path id="TimesNewRomanPS-BoldMT-76" d="M 1534 -88 
L 550 2178 
Q 372 2588 272 2697 
Q 200 2778 59 2806 
L 59 2922 
L 1613 2922 
L 1613 2806 
Q 1466 2806 1413 2753 
Q 1338 2684 1338 2591 
Q 1338 2475 1475 2156 
L 1956 1059 
L 2341 2006 
Q 2506 2413 2506 2581 
Q 2506 2678 2436 2739 
Q 2366 2800 2188 2806 
L 2188 2922 
L 3144 2922 
L 3144 2806 
Q 3006 2788 2918 2703 
Q 2831 2619 2656 2206 
L 1681 -88 
L 1534 -88 
z
" transform="scale(0.015625)"/>
      <path id="TimesNewRomanPS-BoldMT-54" d="M 4038 4238 
L 4038 3091 
L 3925 3091 
Q 3825 3488 3703 3661 
Q 3581 3834 3369 3938 
Q 3250 3994 2953 3994 
L 2638 3994 
L 2638 725 
Q 2638 400 2673 319 
Q 2709 238 2814 177 
Q 2919 116 3100 116 
L 3241 116 
L 3241 0 
L 1022 0 
L 1022 116 
L 1163 116 
Q 1347 116 1459 181 
Q 1541 225 1588 331 
Q 1622 406 1622 725 
L 1622 3994 
L 1316 3994 
Q 888 3994 694 3813 
Q 422 3559 350 3091 
L 231 3091 
L 231 4238 
L 4038 4238 
z
" transform="scale(0.015625)"/>
      <path id="TimesNewRomanPS-BoldMT-68" d="M 1409 4238 
L 1409 2547 
Q 1650 2800 1850 2904 
Q 2050 3009 2266 3009 
Q 2541 3009 2736 2853 
Q 2931 2697 2995 2486 
Q 3059 2275 3059 1775 
L 3059 634 
Q 3059 300 3121 217 
Q 3184 134 3375 113 
L 3375 0 
L 1894 0 
L 1894 113 
Q 2050 134 2128 238 
Q 2184 319 2184 634 
L 2184 1938 
Q 2184 2300 2156 2392 
Q 2128 2484 2061 2536 
Q 1994 2588 1909 2588 
Q 1784 2588 1665 2502 
Q 1547 2416 1409 2200 
L 1409 634 
Q 1409 322 1456 244 
Q 1516 138 1700 113 
L 1700 0 
L 219 0 
L 219 113 
Q 403 131 481 231 
Q 534 300 534 634 
L 534 3603 
Q 534 3934 473 4015 
Q 413 4097 219 4122 
L 219 4238 
L 1409 4238 
z
" transform="scale(0.015625)"/>
      <path id="TimesNewRomanPS-BoldMT-64" d="M 3056 4238 
L 3056 875 
Q 3056 534 3075 472 
Q 3100 369 3170 319 
Q 3241 269 3416 256 
L 3416 153 
L 2181 -88 
L 2181 375 
Q 1959 106 1786 9 
Q 1613 -88 1394 -88 
Q 834 -88 509 413 
Q 247 819 247 1409 
Q 247 1881 409 2254 
Q 572 2628 855 2818 
Q 1138 3009 1463 3009 
Q 1672 3009 1834 2928 
Q 1997 2847 2181 2644 
L 2181 3525 
Q 2181 3859 2153 3928 
Q 2116 4019 2041 4062 
Q 1966 4106 1759 4106 
L 1759 4238 
L 3056 4238 
z
M 2181 2256 
Q 1950 2700 1616 2700 
Q 1500 2700 1425 2638 
Q 1309 2541 1236 2297 
Q 1163 2053 1163 1550 
Q 1163 997 1244 731 
Q 1325 466 1466 347 
Q 1538 288 1663 288 
Q 1938 288 2181 719 
L 2181 2256 
z
" transform="scale(0.015625)"/>
     </defs>
     <use xlink:href="#TimesNewRomanPS-BoldMT-46"/>
     <use xlink:href="#TimesNewRomanPS-BoldMT-69" transform="translate(61.083984 0)"/>
     <use xlink:href="#TimesNewRomanPS-BoldMT-67" transform="translate(88.867188 0)"/>
     <use xlink:href="#TimesNewRomanPS-BoldMT-75" transform="translate(138.867188 0)"/>
     <use xlink:href="#TimesNewRomanPS-BoldMT-72" transform="translate(194.482422 0)"/>
     <use xlink:href="#TimesNewRomanPS-BoldMT-65" transform="translate(237.117188 0)"/>
     <use xlink:href="#TimesNewRomanPS-BoldMT-20" transform="translate(281.501953 0)"/>
     <use xlink:href="#TimesNewRomanPS-BoldMT-38" transform="translate(306.501953 0)"/>
     <use xlink:href="#TimesNewRomanPS-BoldMT-62" transform="translate(356.501953 0)"/>
     <use xlink:href="#TimesNewRomanPS-BoldMT-3a" transform="translate(412.117188 0)"/>
     <use xlink:href="#TimesNewRomanPS-BoldMT-20" transform="translate(445.417969 0)"/>
     <use xlink:href="#TimesNewRomanPS-BoldMT-41" transform="translate(464.917969 0)"/>
     <use xlink:href="#TimesNewRomanPS-BoldMT-6c" transform="translate(537.134766 0)"/>
     <use xlink:href="#TimesNewRomanPS-BoldMT-6c" transform="translate(564.917969 0)"/>
     <use xlink:href="#TimesNewRomanPS-BoldMT-6f" transform="translate(592.701172 0)"/>
     <use xlink:href="#TimesNewRomanPS-BoldMT-77" transform="translate(642.701172 0)"/>
     <use xlink:href="#TimesNewRomanPS-BoldMT-61" transform="translate(714.917969 0)"/>
     <use xlink:href="#TimesNewRomanPS-BoldMT-62" transform="translate(764.917969 0)"/>
     <use xlink:href="#TimesNewRomanPS-BoldMT-6c" transform="translate(820.533203 0)"/>
     <use xlink:href="#TimesNewRomanPS-BoldMT-65" transform="translate(848.316406 0)"/>
     <use xlink:href="#TimesNewRomanPS-BoldMT-20" transform="translate(892.701172 0)"/>
     <use xlink:href="#TimesNewRomanPS-BoldMT-44" transform="translate(917.701172 0)"/>
     <use xlink:href="#TimesNewRomanPS-BoldMT-65" transform="translate(989.917969 0)"/>
     <use xlink:href="#TimesNewRomanPS-BoldMT-6e" transform="translate(1034.302734 0)"/>
     <use xlink:href="#TimesNewRomanPS-BoldMT-73" transform="translate(1089.917969 0)"/>
     <use xlink:href="#TimesNewRomanPS-BoldMT-69" transform="translate(1128.833984 0)"/>
     <use xlink:href="#TimesNewRomanPS-BoldMT-74" transform="translate(1156.617188 0)"/>
     <use xlink:href="#TimesNewRomanPS-BoldMT-79" transform="translate(1189.917969 0)"/>
     <use xlink:href="#TimesNewRomanPS-BoldMT-20" transform="translate(1239.917969 0)"/>
     <use xlink:href="#TimesNewRomanPS-BoldMT-53" transform="translate(1264.917969 0)"/>
     <use xlink:href="#TimesNewRomanPS-BoldMT-65" transform="translate(1320.533203 0)"/>
     <use xlink:href="#TimesNewRomanPS-BoldMT-6e" transform="translate(1364.917969 0)"/>
     <use xlink:href="#TimesNewRomanPS-BoldMT-73" transform="translate(1420.533203 0)"/>
     <use xlink:href="#TimesNewRomanPS-BoldMT-69" transform="translate(1459.449219 0)"/>
     <use xlink:href="#TimesNewRomanPS-BoldMT-74" transform="translate(1487.232422 0)"/>
     <use xlink:href="#TimesNewRomanPS-BoldMT-69" transform="translate(1520.533203 0)"/>
     <use xlink:href="#TimesNewRomanPS-BoldMT-76" transform="translate(1548.316406 0)"/>
     <use xlink:href="#TimesNewRomanPS-BoldMT-69" transform="translate(1598.316406 0)"/>
     <use xlink:href="#TimesNewRomanPS-BoldMT-74" transform="translate(1626.099609 0)"/>
     <use xlink:href="#TimesNewRomanPS-BoldMT-79" transform="translate(1659.400391 0)"/>
     <use xlink:href="#TimesNewRomanPS-BoldMT-20" transform="translate(1709.400391 0)"/>
     <use xlink:href="#TimesNewRomanPS-BoldMT-74" transform="translate(1734.400391 0)"/>
     <use xlink:href="#TimesNewRomanPS-BoldMT-6f" transform="translate(1767.701172 0)"/>
     <use xlink:href="#TimesNewRomanPS-BoldMT-20" transform="translate(1817.701172 0)"/>
     <use xlink:href="#TimesNewRomanPS-BoldMT-54" transform="translate(1840.951172 0)"/>
     <use xlink:href="#TimesNewRomanPS-BoldMT-68" transform="translate(1907.650391 0)"/>
     <use xlink:href="#TimesNewRomanPS-BoldMT-72" transform="translate(1963.265625 0)"/>
     <use xlink:href="#TimesNewRomanPS-BoldMT-65" transform="translate(2005.900391 0)"/>
     <use xlink:href="#TimesNewRomanPS-BoldMT-73" transform="translate(2050.285156 0)"/>
     <use xlink:href="#TimesNewRomanPS-BoldMT-68" transform="translate(2089.201172 0)"/>
     <use xlink:href="#TimesNewRomanPS-BoldMT-6f" transform="translate(2144.816406 0)"/>
     <use xlink:href="#TimesNewRomanPS-BoldMT-6c" transform="translate(2194.816406 0)"/>
     <use xlink:href="#TimesNewRomanPS-BoldMT-64" transform="translate(2222.599609 0)"/>
    </g>
   </g>
   <g id="legend_1">
    <g id="line2d_20">
     <path d="M 437.991831 193.12475 
L 449.991831 193.12475 
L 461.991831 193.12475 
" style="fill: none; stroke: #0072b2; stroke-width: 2.6; stroke-linecap: square"/>
     <g>
      <use xlink:href="#mf532dc019a" x="449.991831" y="193.12475" style="fill: #0072b2; stroke: #ffffff; stroke-width: 0.6"/>
     </g>
    </g>
    <g id="text_20">
     <!-- $\tau=0.20$ V -->
     <g transform="translate(471.591831 197.32475) scale(0.12 -0.12)">
      <defs>
       <path id="STIXGeneral-Italic-3c4" d="M 2726 2739 
L 2592 2266 
L 1741 2266 
Q 1293 1248 1293 742 
Q 1293 416 1523 416 
Q 1638 416 1779 547 
Q 1920 678 2003 858 
L 2106 858 
Q 1990 467 1731 198 
Q 1472 -70 1178 -70 
Q 768 -70 768 384 
Q 768 890 1395 2266 
L 1005 2266 
Q 493 2266 179 1702 
L 77 1702 
Q 237 2093 569 2416 
Q 902 2739 1331 2739 
L 2726 2739 
z
" transform="scale(0.015625)"/>
       <path id="STIXGeneral-Regular-3d" d="M 4077 2048 
L 307 2048 
L 307 2470 
L 4077 2470 
L 4077 2048 
z
M 4077 768 
L 307 768 
L 307 1190 
L 4077 1190 
L 4077 768 
z
" transform="scale(0.015625)"/>
       <path id="STIXGeneral-Regular-30" d="M 3046 2112 
Q 3046 1683 2963 1302 
Q 2880 922 2717 602 
Q 2554 282 2266 96 
Q 1978 -90 1600 -90 
Q 1210 -90 915 108 
Q 621 307 461 640 
Q 301 973 227 1350 
Q 154 1728 154 2150 
Q 154 2746 301 3222 
Q 448 3699 790 4012 
Q 1133 4326 1626 4326 
Q 2253 4326 2649 3712 
Q 3046 3098 3046 2112 
z
M 2432 2080 
Q 2432 3091 2217 3625 
Q 2003 4160 1587 4160 
Q 1190 4160 979 3622 
Q 768 3085 768 2106 
Q 768 1120 979 598 
Q 1190 77 1600 77 
Q 2003 77 2217 598 
Q 2432 1120 2432 2080 
z
" transform="scale(0.015625)"/>
       <path id="STIXGeneral-Regular-2e" d="M 1158 275 
Q 1158 134 1052 32 
Q 947 -70 800 -70 
Q 653 -70 550 32 
Q 448 134 448 281 
Q 448 429 553 534 
Q 659 640 806 640 
Q 947 640 1052 531 
Q 1158 422 1158 275 
z
" transform="scale(0.015625)"/>
       <path id="STIXGeneral-Regular-32" d="M 3034 877 
L 2688 0 
L 186 0 
L 186 77 
L 1325 1286 
Q 1773 1754 1965 2144 
Q 2157 2534 2157 2950 
Q 2157 3379 1920 3616 
Q 1683 3853 1267 3853 
Q 922 3853 720 3673 
Q 518 3494 326 3021 
L 192 3053 
Q 301 3648 630 3987 
Q 960 4326 1523 4326 
Q 2054 4326 2380 4006 
Q 2707 3686 2707 3200 
Q 2707 2477 1888 1613 
L 832 486 
L 2330 486 
Q 2541 486 2665 569 
Q 2790 653 2944 915 
L 3034 877 
z
" transform="scale(0.015625)"/>
       <path id="TimesNewRomanPSMT-56" d="M 4544 4238 
L 4544 4122 
Q 4319 4081 4203 3978 
Q 4038 3825 3909 3509 
L 2431 -97 
L 2316 -97 
L 728 3556 
Q 606 3838 556 3900 
Q 478 3997 364 4051 
Q 250 4106 56 4122 
L 56 4238 
L 1788 4238 
L 1788 4122 
Q 1494 4094 1406 4022 
Q 1319 3950 1319 3838 
Q 1319 3681 1463 3350 
L 2541 866 
L 3541 3319 
Q 3688 3681 3688 3822 
Q 3688 3913 3597 3995 
Q 3506 4078 3291 4113 
Q 3275 4116 3238 4122 
L 3238 4238 
L 4544 4238 
z
" transform="scale(0.015625)"/>
      </defs>
      <use xlink:href="#STIXGeneral-Italic-3c4" transform="translate(0 0.40625)"/>
      <use xlink:href="#STIXGeneral-Regular-3d" transform="translate(55.439981 0.40625)"/>
      <use xlink:href="#STIXGeneral-Regular-30" transform="translate(138.379962 0.40625)"/>
      <use xlink:href="#STIXGeneral-Regular-2e" transform="translate(188.379947 0.40625)"/>
      <use xlink:href="#STIXGeneral-Regular-32" transform="translate(213.379932 0.40625)"/>
      <use xlink:href="#STIXGeneral-Regular-30" transform="translate(263.379916 0.40625)"/>
      <use xlink:href="#TimesNewRomanPSMT-20" transform="translate(313.379901 0.40625)"/>
      <use xlink:href="#TimesNewRomanPSMT-56" transform="translate(338.379901 0.40625)"/>
     </g>
    </g>
    <g id="line2d_21">
     <path d="M 437.991831 210.091625 
L 449.991831 210.091625 
L 461.991831 210.091625 
" style="fill: none; stroke: #e69f00; stroke-width: 2.6; stroke-linecap: square"/>
     <g>
      <use xlink:href="#m456a610d4c" x="449.991831" y="210.091625" style="fill: #e69f00; stroke: #ffffff; stroke-width: 0.6"/>
     </g>
    </g>
    <g id="text_21">
     <!-- $\tau=0.30$ V -->
     <g transform="translate(471.591831 214.291625) scale(0.12 -0.12)">
      <defs>
       <path id="STIXGeneral-Regular-33" d="M 390 3264 
L 288 3290 
Q 435 3770 748 4048 
Q 1062 4326 1542 4326 
Q 1990 4326 2265 4083 
Q 2541 3840 2541 3450 
Q 2541 2925 1946 2566 
Q 2298 2413 2477 2227 
Q 2758 1914 2758 1402 
Q 2758 890 2464 506 
Q 2246 211 1840 60 
Q 1434 -90 979 -90 
Q 262 -90 262 275 
Q 262 378 339 442 
Q 416 506 525 506 
Q 685 506 915 339 
Q 1197 141 1466 141 
Q 1818 141 2058 425 
Q 2298 710 2298 1120 
Q 2298 1856 1632 2048 
Q 1434 2112 979 2112 
L 979 2202 
Q 1338 2323 1517 2432 
Q 2035 2726 2035 3290 
Q 2035 3610 1852 3776 
Q 1670 3942 1344 3942 
Q 768 3942 390 3264 
z
" transform="scale(0.015625)"/>
      </defs>
      <use xlink:href="#STIXGeneral-Italic-3c4" transform="translate(0 0.40625)"/>
      <use xlink:href="#STIXGeneral-Regular-3d" transform="translate(55.439981 0.40625)"/>
      <use xlink:href="#STIXGeneral-Regular-30" transform="translate(138.379962 0.40625)"/>
      <use xlink:href="#STIXGeneral-Regular-2e" transform="translate(188.379947 0.40625)"/>
      <use xlink:href="#STIXGeneral-Regular-33" transform="translate(213.379932 0.40625)"/>
      <use xlink:href="#STIXGeneral-Regular-30" transform="translate(263.379916 0.40625)"/>
      <use xlink:href="#TimesNewRomanPSMT-20" transform="translate(313.379901 0.40625)"/>
      <use xlink:href="#TimesNewRomanPSMT-56" transform="translate(338.379901 0.40625)"/>
     </g>
    </g>
    <g id="line2d_22">
     <path d="M 437.991831 227.0585 
L 449.991831 227.0585 
L 461.991831 227.0585 
" style="fill: none; stroke: #009e73; stroke-width: 2.6; stroke-linecap: square"/>
     <g>
      <use xlink:href="#m4ec6ed0142" x="449.991831" y="227.0585" style="fill: #009e73; stroke: #ffffff; stroke-width: 0.6"/>
     </g>
    </g>
    <g id="text_22">
     <!-- $\tau=0.50$ V -->
     <g transform="translate(471.591831 231.2585) scale(0.12 -0.12)">
      <defs>
       <path id="STIXGeneral-Regular-35" d="M 2803 4358 
L 2573 3814 
Q 2534 3731 2400 3731 
L 1158 3731 
L 902 3187 
Q 1606 3053 1920 2896 
Q 2234 2739 2502 2368 
Q 2726 2061 2726 1555 
Q 2726 1094 2576 780 
Q 2426 467 2099 224 
Q 1664 -90 1011 -90 
Q 646 -90 422 19 
Q 198 128 198 307 
Q 198 550 486 550 
Q 717 550 960 352 
Q 1210 147 1414 147 
Q 1747 147 2012 480 
Q 2278 813 2278 1229 
Q 2278 1843 1850 2189 
Q 1293 2637 486 2637 
Q 410 2637 410 2688 
L 416 2720 
L 1114 4237 
L 2438 4237 
Q 2547 4237 2608 4269 
Q 2669 4301 2746 4403 
L 2803 4358 
z
" transform="scale(0.015625)"/>
      </defs>
      <use xlink:href="#STIXGeneral-Italic-3c4" transform="translate(0 0.203125)"/>
      <use xlink:href="#STIXGeneral-Regular-3d" transform="translate(55.439981 0.203125)"/>
      <use xlink:href="#STIXGeneral-Regular-30" transform="translate(138.379962 0.203125)"/>
      <use xlink:href="#STIXGeneral-Regular-2e" transform="translate(188.379947 0.203125)"/>
      <use xlink:href="#STIXGeneral-Regular-35" transform="translate(213.379932 0.203125)"/>
      <use xlink:href="#STIXGeneral-Regular-30" transform="translate(263.379916 0.203125)"/>
      <use xlink:href="#TimesNewRomanPSMT-20" transform="translate(313.379901 0.203125)"/>
      <use xlink:href="#TimesNewRomanPSMT-56" transform="translate(338.379901 0.203125)"/>
     </g>
    </g>
   </g>
  </g>
 </g>
 <defs>
  <clipPath id="p8724443011">
   <rect x="38.272031" y="20.929375" width="503.51" height="254.2"/>
  </clipPath>
 </defs>
</svg>
